<svg enable-background="new 0 0 512 512" version="1.1" viewBox="0 0 512 512" xml:space="preserve" xmlns="http://www.w3.org/2000/svg">
<path d="m325.01 353.98c3.3643-0.070038 6.7286-0.14004 10.722 0.15057 1.5125 0.18936 2.3962 0.018127 3.2799-0.15311 3.3635-0.069641 6.7269-0.13922 10.822 0.1947 4.547 0.20474 8.3624 0.005982 12.178-0.19275 3.0333-0.069275 6.0666-0.13858 9.6361 0.065399 0.81158 0.15961 1.087 0.045929 1.3625-0.067749 0.44501-0.067169 0.89004-0.13431 1.804 0.13123 1.0444 0.17947 1.62 0.026306 2.1956-0.12686 5.3589-0.069488 10.718-0.13892 16.625 0.064087 0.82202 0.16568 1.0961 0.058838 1.3701-0.047973 4.8971-0.1626 6.0902 0.91769 4.8966 5.1155-2.3508 8.267-5.1332 16.413-7.3916 24.704-1.2342 4.5306-4.0643 5.2156-8.1787 5.2113-79.241-0.08374-158.48-0.060456-237.72-0.059876-7.4913 6.1e-5 -14.993 0.20612-22.467-0.151-1.9258-0.09201-4.9428-1.564-5.455-3.0794-3.2212-9.5287-5.8848-19.246-8.6921-28.913-0.12414-0.42743 0.14714-0.96966 1.0447-1.6515 6.5392-0.18619 12.271-0.064392 17.995-0.21951 3.0023-0.08139 5.9914-0.64813 8.9864-0.99567 7.6852-0.066284 15.37-0.13257 23.765 0.19379 2.8831 0.2008 5.0571 0.008941 7.2312-0.18295 2.0416-0.068146 4.0832-0.13626 6.8396 0.20428 7.8633 0.20502 15.012 0.001343 22.16-0.20236 0.44313-0.066833 0.88628-0.13367 1.8601 0.16937 1.7337 0.19 2.9368 0.010101 4.1398-0.1698 2.6993-0.070618 5.3986-0.14124 8.811 0.19061 3.872 0.20428 7.0309 0.006134 10.19-0.19202 3.0313-0.067108 6.0626-0.13419 9.7448 0.17151 1.8523 0.19086 3.0539 0.008881 4.2554-0.1731 0.44273-0.068084 0.88545-0.13617 1.7953 0.13153 1.0457 0.18066 1.6244 0.025513 2.203-0.12964 2.0434-0.067077 4.0867-0.13416 6.7006 0.13605 1.146 0.18185 1.7215 0.026428 2.297-0.129 7.0234-0.070191 14.047-0.14038 21.621 0.063995 0.82642 0.16113 1.1025 0.047791 1.3787-0.065582 10.689-0.07074 21.379-0.14145 32.752 0.16928 2.2054 0.19934 3.7267 0.017242 5.248-0.16486 3.6955-0.070282 7.3909-0.14056 11.68 0.12573 1.1687 0.18283 1.7439 0.029053 2.319-0.12472z" fill="#D12D4F"/>
<path d="m145.05 429.83c-1.4896-1.1163-3.452-1.9303-4.3905-3.3988-5.3182-8.3218-10.526-16.723-15.419-25.299-0.84724-1.4849-0.008011-3.932 0.75246-5.6878 1.6874 0.34549 2.6746 0.53012 3.6618 0.53027 83.663 0.012848 167.33 0.015259 250.99-0.02124 1.4326-6.1e-4 2.865-0.48355 4.2974-0.74139 0.28293 1.4121 1.2914 3.2736 0.73767 4.1676-6.2507 10.093-12.738 20.04-19.184 30.012-0.1572 0.2432-0.56473 0.32458-1.5158 0.19443-1.4787-0.3855-2.2971-0.56998-3.1155-0.57016-70.851-0.014313-141.7-0.019287-212.55 0.019073-1.4203 7.63e-4 -2.8403 0.51834-4.2604 0.79483z" fill="#C22551"/>
<path d="m400.02 305.93c-2.826 0.075043-5.6519 0.21521-8.4779 0.21561-65.8 0.009216-131.6 0.005066-197.4-0.002655-6.8289-7.94e-4 -6.7134-0.016297-6.582-7.0788 0.12701-6.8264-0.15959-13.662 0.040039-20.485 0.062561-2.1382 1.1126-4.2476 2.3984-6.1255 1.6725 0.34412 2.6571 0.53052 3.6418 0.5307 67.349 0.013275 134.7 0.016541 202.05-0.022125 1.4253-8.24e-4 2.8503-0.5 4.2754-0.76669 0.92447 1.1962 2.5635 2.3381 2.6592 3.5972 0.69546 9.1526 1.1176 18.327 1.497 27.5 0.03299 0.7977-0.86325 1.6338-1.8883 2.3104-1.1098 0.014251-1.6591 0.1702-2.2084 0.32614z" fill="#FF9E11"/>
<path d="m401.97 313.14c0.70032 0.55481 2.0467 1.1629 2.006 1.6566-0.88144 10.693-1.9176 21.373-3.7649 32.151-70.997 0.0849-141.15 0.075134-211.31 0.065369-0.3842-1.1819-1.1012-2.3642-1.1001-3.5457 0.008621-9.6658 0.15109-19.331 0.97752-29.261 70.128-0.24686 139.53-0.22458 208.94-0.24814 1.4181-4.58e-4 2.836-0.53308 4.2541-0.81741z" fill="#FFA30E"/>
<path d="m393.05 231.98c2.3523 9.7371 4.7651 19.461 6.9647 29.232 0.22391 0.99463-0.83414 2.2778-1.7785 3.367-0.81589-0.22348-1.055-0.11307-1.1984 0.27118-0.46558 0.050812-0.93115 0.10165-2.0525-0.18912-1.6391-0.44687-2.6224-0.64404-3.6058-0.64429-64.364-0.01532-128.73-0.020141-193.09 0.020447-1.415 8.85e-4 -2.8297 0.53732-4.2446 0.82398-0.77196 0.049377-1.5439 0.098724-2.7681-0.072632-0.74342-0.44925-0.99667-0.39185-1.212-0.048523-0.81259-1.7674-2.2652-3.5131-2.3262-5.306-0.25412-7.4706-0.089401-14.955 0.29214-23.138 0.35777-1.9773 0.34509-3.2514 0.33243-4.5255 0 0 0.072998-0.25603 0.65073-0.14293 2.7392 0.18767 4.9006 0.32686 7.0621 0.32741 65.659 0.016755 131.32 0.019837 196.98 0.025055z" fill="#FE851E"/>
<path d="m387.03 223.85c-2.3898 0.083954-4.7795 0.16792-7.7544-0.049393-1.1423-0.15768-1.6995-0.014099-2.2566 0.12949-0.76388 0.05893-1.5278 0.11786-2.965-0.19292-5.1274-0.17754-9.5815 0.014634-14.036 0.2068-3.3789 0.054229-6.7578 0.10846-10.889-0.20831-5.8712-0.18048-10.99 0.010025-16.108 0.20053-3.0473 0.060135-6.0947 0.12025-9.774-0.14761-1.4978-0.16788-2.3635-0.007751-3.2293 0.15238-1.4032 0.059173-2.8063 0.11836-4.9224-0.1966-5.1442-0.49782-9.579-0.79083-14.006-0.69717-4.3605 0.09227-8.7128 0.57629-13.069 0.88843-3.3789 0.058823-6.7579 0.11766-10.838-0.17529-2.5222-0.17473-4.343 0.002335-6.1638 0.17938-1.4051 0.054245-2.8102 0.10848-4.9304-0.20767-6.4995-0.17873-12.284 0.012909-18.068 0.20456-1.7304 0.05809-3.4609 0.1162-5.9152-0.1976-5.8446-0.18069-10.965 0.010498-16.086 0.20169-2.0578 0.056473-4.1156 0.11292-6.8552-0.18155-2.5021-0.17609-4.3226-0.001251-6.143 0.17357-3.7115 0.057067-7.4231 0.11414-11.88-0.1946-4.1958-0.20863-7.646-0.051483-11.096 0.10567-0.87538-1.2821-2.7112-2.7839-2.476-3.8119 2.1027-9.19 4.3537-18.363 7.1305-27.366 0.49994-1.6209 3.6043-3.4697 5.5115-3.4754 58.426-0.17561 116.85-0.17464 175.28 0.045578 2.0181 0.007614 5.1677 2.1261 5.8452 3.9738 3.1836 8.6826 5.7617 17.593 8.3392 26.485 0.32336 1.1156-0.63712 2.6033-1.4637 3.8629-0.7988-0.20494-1.038-0.088882-1.1784 0.29237z" fill="#FE8420"/>
<path d="m201.67 181.09c-0.045227-1.0281-0.50105-2.2863-0.073425-3.0494 5.4159-9.6647 10.959-19.258 17.266-28.974 33.807-0.097824 66.818-0.091995 99.829-0.086166 1.1074 5.4704 2.1859 10.947 3.3319 16.409 0.83191 3.9651 1.7531 7.9115 2.8196 12.572 0.17136 1.4838 0.15772 2.2616-0.20428 3.0439-1.1275 0.37852-1.9066 0.75253-2.6858 1.1265-1.6869 0.078522-3.3738 0.15703-5.7523-0.19701-1.656-0.59912-2.6203-0.9106-3.5848-0.91133-33.19-0.025238-66.381-0.03447-99.571 0.026474-1.3681 0.002502-2.735 0.70277-4.1024 1.078-1.7202 0.028702-3.4403 0.057419-5.7229-0.28618-0.89148-0.49907-1.2206-0.62581-1.5497-0.75256z" fill="#FE851F"/>
<path d="m335.29 461.14c-5.1247 6.8046-11.444 9.4738-20.421 9.3568-41.767-0.54434-83.545-0.21732-125.32-0.28769-2.3799-0.004028-4.7584-0.76773-7.3864-1.9144 0.34993-3.9231-0.13384-8.4541 1.786-10 3.384-2.7249 8.124-4.5463 12.498-5.075 6.2977-0.76126 12.272-1.3252 17.1-6.0596 0.82983-0.81372 2.6913-0.67246 4.091-0.78226 1.59-0.12473 3.2391 0.19989 4.7889-0.079316 7.9477-1.4316 15.835-3.2408 23.818-4.42 4.8106-0.71069 9.7986-1.0269 14.631-0.621 11.461 0.96252 22.859 2.6747 34.319 3.6708 8.1992 0.71277 16.458 0.73254 24.686 1.1309 0.95508 0.046234 1.9613 0.3971 2.8198 0.84476 4.0387 2.1061 8.0341 4.2953 10.986 5.8848 0.67358 3.5105 1.138 5.9309 1.6024 8.3513z" fill="#A51A54"/>
<path d="m307.37 107.91c2.829 7.72 5.9371 15.352 8.4185 23.182 3.3131 10.454 3.1043 10.577-7.97 10.59-25.47 0.029922-50.939 0.015731-76.409-0.016526-7.6238-0.009658-8.1161-0.8152-5.4646-8.0178 2.7449-7.4566 5.5399-14.898 8.1025-22.417 1.1452-3.3606 3.0698-4.5074 6.6339-4.4801 21.473 0.16473 42.949 0.10289 65.045 0.44998 0.96243 0.45864 1.3031 0.58417 1.6438 0.7097z" fill="#FE8622"/>
<path d="m107.1 343.44c-0.44637-8.7557-0.73182-17.075-1.3276-25.371-0.28852-4.0177 1.2797-5.2322 5.1464-5.2086 21.494 0.1311 42.99 0.1369 64.484 0.033539 3.4733-0.016723 4.7278 1.1669 4.666 4.6307-0.15158 8.4949-0.132 16.996 0.020477 25.492 0.063736 3.551-1.1201 5.1387-4.8707 5.1236-20.994-0.084259-41.99-0.06369-62.984 0.03653-3.163 0.015075-4.5213-1.5287-5.1342-4.7362z" fill="#24BAD9"/>
<path d="m335.59 461.01c-0.76227-2.2949-1.2267-4.7152-1.9002-8.2258-2.9519-1.5894-6.9473-3.7786-10.986-5.8848-0.85846-0.44766-1.8647-0.79852-2.8198-0.84476-8.2287-0.39838-16.487-0.41815-24.686-1.1309-11.459-0.99619-22.857-2.7083-34.319-3.6708-4.8327-0.40585-9.8207-0.089691-14.631 0.621-7.9822 1.1792-15.87 2.9884-23.818 4.42-1.5498 0.27921-3.199-0.04541-4.7889 0.079316-1.3998 0.1098-3.2612-0.031464-4.091 0.78226-4.828 4.7344-10.803 5.2983-17.1 6.0596-4.3742 0.52872-9.1142 2.3501-12.498 5.075-1.9199 1.5459-1.4361 6.0769-2.0806 9.7382-14.378-11.308-29.012-26.868-29.636-31.309h205.42c0.30066 0.44937 0.60132 0.89874 0.90195 1.3481-7.5556 7.6058-15.111 15.212-22.965 22.943z" fill="#AC2157"/>
<path d="m177.92 272.3c0.68584 0.98428 1.9495 1.9582 1.9674 2.9545 0.16339 9.1242 0.22488 18.255-0.021256 27.376-0.031463 1.1663-1.9941 2.2804-3.7813 3.0742-1.365-0.46143-2.0107-0.68002-2.6566-0.68066-19.906-0.019806-39.811-0.034912-59.717 0.02005-1.2342 0.003387-2.4668 0.58368-3.7002 0.89557-0.45594 0.044067-0.91189 0.088134-1.8494-0.1702-0.79478-0.43366-1.108-0.56494-1.4212-0.69623-0.15213-6.6172-0.58146-13.244-0.3571-19.848 0.14505-4.27 1.2469-8.5074 2.6281-12.623 22.832 0.21768 44.957 0.3042 67.081 0.35092 0.60883 0.001282 1.2186-0.42554 1.8279-0.65268z" fill="#25BAD9"/>
<path d="m292.98 492.98c-10.53 5.1864-20.674 10.338-30.947 15.217-5.4555 2.5912-11.139 1.5419-16.481-0.47537-16.258-6.1389-30.795-15.369-44.713-25.619-0.89554-0.65952-1.1975-2.125-1.7756-3.2155 1.0913-0.56226 2.151-1.5199 3.28-1.6101 2.9782-0.23795 5.9865-0.10922 8.9829-0.10938 31.13-0.001496 62.26-0.011963 93.39 0.029937 2.0111 0.002716 4.0217 0.41647 6.0326 0.63904 0.26038 0.65732 0.52075 1.3146 0.78113 1.9719-6.0726 4.3412-12.145 8.6823-18.55 13.171z" fill="#9A1E58"/>
<path d="m110.57 264.11c-0.44752-1.3947-1.5105-2.9221-1.2433-4.1629 1.8121-8.4145 3.9129-16.767 5.9034-25.143 0.75573-3.1801 2.5126-4.6667 6.001-4.6435 17.815 0.11842 35.632 0.071014 53.448 0.0242 2.842-0.007461 5.138 0.66216 5.1935 3.9354 0.158 9.3216 0.18892 18.646 0.15349 27.969-0.003174 0.8334-0.8505 1.6636-2.0271 2.337-22.957-0.21097-45.193-0.26358-67.429-0.31619z" fill="#28BAD9"/>
<path d="m287.03 99.89c-8.7086 0.051491-17.417 0.10298-26.676-0.075775-0.81152-0.12882-1.0721-0.027412-1.3328 0.074005-1.0851 0.050637-2.1702 0.10127-3.8704-0.16681-1.7831-0.15808-2.9512 0.002564-4.1193 0.16322-10.999 0.64053-11.002 0.64053-10.987-10.247 0.009124-6.6574 0.058563-13.315 0.029846-19.972-0.014984-3.4752 1.3717-5.0385 5.0906-4.997 13.313 0.1485 26.632-0.075653 39.941 0.19043 1.8962 0.03791 4.6621 1.5419 5.4786 3.1519 4.4881 8.8497 8.5598 17.914 12.636 26.968 1.6882 3.7497-0.073181 5.2535-3.8608 5.1076-2.1608-0.083283-4.3266-0.034821-7.1794-0.37206-2.176-0.15875-3.6628 0.008873-5.1496 0.1765z" fill="#FE8420"/>
<path d="m157.88 189.04c8.8421 0.012833 8.8356 0.014603 11.062 8.179 1.9151 7.0214 3.8096 14.049 5.7864 21.053 1.1169 3.9571 0.21001 5.8944-4.3858 5.8452-14.809-0.15881-29.621-0.014084-44.432-0.062912-5.0366-0.016587-5.823-0.98322-4.0061-5.5497 3.3661-8.4602 7.0688-16.786 10.539-25.205 1.3246-3.2132 3.5283-4.431 6.9847-4.3178 5.9846 0.19602 11.98 0.056931 18.451 0.058762z" fill="#27BADA"/>
<path d="m240.07 23.011c0.017776-4.3298-0.1179-8.1722 0.13649-11.989 0.088058-1.3211 0.91756-3.4191 1.8137-3.661 1.2573-0.33941 3.3168 0.2892 4.3031 1.2518 13.515 13.19 25.299 27.794 35.049 43.985 2.4759 4.1113 1.7016 5.3792-2.9927 5.406-11.163 0.063515-22.329-0.090492-33.489 0.092888-3.8505 0.063267-4.8941-1.6024-4.8537-5.0967 0.11342-9.8292 0.035645-19.661 0.033539-29.989z" fill="#FE8420"/>
<path d="m324.99 181c0.013672-0.77785 0.027313-1.5557 0.057312-2.7218 8.584-5.0997 12.473-13.492 15.894-21.84 2.2152-5.4063 2.696-11.517 4.0403-17.292 0.24115-1.036 0.80649-2.7198 1.3924-2.7961 1.0937-0.1423 2.4452 0.47904 3.44 1.1516 0.92065 0.62239 1.6447 1.6495 2.2336 2.6314 7.1551 11.93 14.381 23.82 21.34 35.864 2.8638 4.9571 1.8433 6.5788-3.7809 6.611-11.964 0.068527-23.929-0.04747-36.503-0.58218-3.1102-0.67155-5.6118-0.84874-8.1134-1.0259z" fill="#FFA213"/>
<path d="m144.52 172.48c5.6366-9.082 11.072-17.859 16.507-26.636 0.52969 0.13095 1.0594 0.2619 1.5891 0.39285 0.46968 1.2679 1.2911 2.5189 1.3527 3.8063 0.44426 9.2821 0.6281 18.577 1.1273 27.856 0.19403 3.6064-1.5464 4.7861-4.6803 4.8002-4.9808 0.0224-9.9703 0.14906-14.941-0.088669-5.4283-0.25967-6.068-1.7134-3.2328-6.4315 0.68309-1.1367 1.3836-2.2629 2.2773-3.6989z" fill="#2BBCDB"/>
<path d="m392.9 231.61c-65.508 0.36522-131.17 0.36214-196.82 0.34538-2.1615-5.49e-4 -4.3229-0.13974-6.9543-0.40553 1.2314-0.60332 2.9324-1.3741 4.6341-1.3757 64.592-0.060883 129.18-0.05983 193.78-0.004029 1.7396 0.001511 3.4786 0.69739 5.3685 1.4399z" fill="#FD923D"/>
<path d="m384.48 395.13c-0.97583 0.34903-2.4082 0.83197-3.8408 0.83258-83.663 0.036499-167.33 0.034088-250.99 0.02124-0.98723-1.52e-4 -1.9744-0.18478-3.2771-0.54407 28.511-0.31863 57.338-0.41696 86.165-0.4259 57.162-0.017731 114.32 0.013855 171.94 0.11615z" fill="#B71237"/>
<path d="m145.51 429.9c0.95889-0.34497 2.3789-0.86255 3.7992-0.86331 70.851-0.03836 141.7-0.033386 212.55-0.019073 0.81842 1.83e-4 1.6368 0.18466 2.7694 0.54599-30.68 0.32245-61.674 0.41693-92.669 0.43314-41.997 0.021973-83.995-0.016022-126.45-0.096741z" fill="#B2143A"/>
<path d="m401.5 313.07c-0.95731 0.36215-2.3752 0.89478-3.7933 0.89523-69.404 0.023559-138.81 0.001281-208.72-0.038727 1.0577-0.33679 2.6248-0.92465 4.1922-0.92545 69.287-0.035431 138.57-0.019043 208.32 0.068939z" fill="#FF9506"/>
<path d="m189.15 347.38c69.907-0.3505 140.06-0.34073 210.71-0.30924-1.0594 0.35135-2.6133 0.96848-4.1676 0.96933-67.611 0.037109-135.22 0.021149-202.83-0.004028-1.1544-4.28e-4 -2.3088-0.19293-3.7123-0.65607z" fill="#FF760C"/>
<path d="m399.5 272.11c-0.966 0.3526-2.391 0.85178-3.8163 0.8526-67.349 0.038666-134.7 0.0354-202.05 0.022125-0.98468-1.83e-4 -1.9693-0.18658-3.2742-0.54303 23.12-0.32513 46.561-0.44128 70.002-0.45136 46.225-0.019806 92.45 0.019135 139.13 0.11966z" fill="#FE890B"/>
<path d="m194.5 264.92c0.95238-0.34695 2.3671-0.88339 3.7821-0.88428 64.364-0.040588 128.73-0.035767 193.09-0.020447 0.9834 2.44e-4 1.9667 0.19742 3.2601 0.57166-27.186 0.31726-54.682 0.39343-82.178 0.4071-39.165 0.01944-78.329-0.006927-117.96-0.074036z" fill="#FD740A"/>
<path d="m318.52 148.65c-32.843 0.31865-65.853 0.31282-99.355 0.27689 1.1817-0.50026 2.8528-1.3755 4.5264-1.3804 29.943-0.087189 59.887-0.082153 89.831-0.037018 1.6103 0.002442 3.2198 0.53191 4.9977 1.1405z" fill="#FE7712"/>
<path d="m209.41 182.22c0.90112-0.4659 2.268-1.1662 3.6361-1.1687 33.19-0.060944 66.381-0.051712 99.571-0.026474 0.96457 7.32e-4 1.9289 0.31221 3.1745 0.80362-27.97 0.40143-56.222 0.48659-84.473 0.54864-7.1472 0.015702-14.295-0.042282-21.908-0.15712z" fill="#FE7712"/>
<path d="m177.47 272.19c-0.15709 0.33612-0.76682 0.76294-1.3756 0.76166-22.124-0.046722-44.249-0.13324-66.7-0.45526 22.323-0.29913 44.973-0.35724 68.076-0.3064z" fill="#25ADCE"/>
<path d="m110.91 264.42c21.905-0.25757 44.141-0.20496 66.705 0.088928-21.906 0.23459-44.14 0.22794-66.705-0.088928z" fill="#1FA5C6"/>
<path d="m110.48 306.01c0.77078-0.38681 2.0034-0.9671 3.2376-0.97049 19.906-0.054962 39.811-0.039856 59.717-0.02005 0.6459 6.41e-4 1.2916 0.21924 2.2432 0.61523-21.375 0.33606-43.055 0.39313-65.198 0.3753z" fill="#25ADCE"/>
<path d="m137.55 353.88c-2.5309 0.42609-5.5201 0.99283-8.5223 1.0742-5.7244 0.15512-11.456 0.033326-17.661 0.018616 1.1749-0.40134 2.8204-1.106 4.4774-1.1343 7.0787-0.12122 14.161-0.042694 21.706 0.041504z" fill="#CD173C"/>
<path d="m288.48 224.01c3.8934-0.38403 8.2457-0.86806 12.606-0.96033 4.4267-0.093658 8.8615 0.19936 13.592 0.61084-8.3792 0.33235-17.057 0.37688-26.198 0.34949z" fill="#FD7513"/>
<path d="m197.55 353.9c-6.6846 0.28189-13.833 0.48556-21.269 0.38342 6.7434-0.35776 13.774-0.4097 21.269-0.38342z" fill="#CD173C"/>
<path d="m248.48 224.01c5.3225-0.26326 11.107-0.4549 17.192-0.36244-5.3763 0.33408-11.053 0.38406-17.192 0.36244z" fill="#FD7513"/>
<path d="m226.48 224.01c4.6598-0.26218 9.7805-0.45337 15.2-0.35864-4.7139 0.33383-9.7263 0.38174-15.2 0.35864z" fill="#FD7513"/>
<path d="m333.48 224.01c4.6578-0.26245 9.7762-0.45296 15.194-0.35927-4.7115 0.33319-9.7225 0.3822-15.194 0.35927z" fill="#FD7513"/>
<path d="m360.48 224.02c3.9955-0.26388 8.4496-0.45606 13.201-0.36499-4.0492 0.3344-8.396 0.38556-13.201 0.36499z" fill="#FD7513"/>
<path d="m361.55 353.9c-3.3597 0.27753-7.175 0.47629-11.275 0.37717 3.4168-0.35059 7.1179-0.40329 11.275-0.37717z" fill="#CD173C"/>
<path d="m324.64 181c2.8499 0.17268 5.3515 0.34987 8.0895 0.8544-3.1315 0.37036-6.4995 0.41338-10.321 0.36426 0.32529-0.46613 1.1044-0.84013 2.2319-1.2187z" fill="#FE7712"/>
<path d="m190.49 223.93c3.0031-0.24674 6.4533-0.40388 10.193-0.28287-3.0555 0.3096-6.4009 0.34103-10.193 0.28287z" fill="#FD7513"/>
<path d="m222.56 353.89c-2.7093 0.27731-5.8682 0.47546-9.3008 0.37454 2.7679-0.35062 5.8096-0.40213 9.3008-0.37454z" fill="#CD173C"/>
<path d="m188.18 231.99c0.19307 1.0515 0.20575 2.3256-0.093917 3.8418-0.23706-1.045-0.16177-2.3321 0.093917-3.8418z" fill="#FD923D"/>
<path d="m168.58 353.89c-1.7402 0.26981-3.9142 0.46167-6.339 0.3634 1.8012-0.34055 3.8532-0.39093 6.339-0.3634z" fill="#CD173C"/>
<path d="m271.44 224.01c1.3996-0.2487 3.2205-0.42577 5.2894-0.33782-1.4573 0.31317-3.1628 0.36131-5.2894 0.33782z" fill="#FD7513"/>
<path d="m213.44 224c1.3993-0.24663 3.2198-0.42146 5.288-0.33138-1.4571 0.311-3.162 0.35709-5.288 0.33138z" fill="#FD7513"/>
<path d="m287.44 99.952c1.0789-0.23023 2.5658-0.39786 4.2881-0.31658-1.1364 0.29233-2.5083 0.33576-4.2881 0.31658z" fill="#FE7712"/>
<path d="m310.59 353.9c-1.1084 0.26272-2.6297 0.44482-4.3771 0.35116 1.1707-0.32779 2.5675-0.37979 4.3771-0.35116z" fill="#CD173C"/>
<path d="m251.42 99.948c0.77798-0.22432 1.9461-0.38496 3.3278-0.30434-0.83679 0.28351-1.8873 0.32576-3.3278 0.30434z" fill="#FE7712"/>
<path d="m203.61 353.89c-0.80562 0.25906-2.0087 0.43896-3.4175 0.34882 0.86951-0.32269 1.9448-0.37534 3.4175-0.34882z" fill="#CD173C"/>
<path d="m236.61 353.89c-0.80405 0.25974-2.0056 0.44171-3.4143 0.35529 0.86748-0.3233 1.9421-0.37817 3.4143-0.35529z" fill="#CD173C"/>
<path d="m320.38 224.01c0.49872-0.23123 1.3644-0.39136 2.4131-0.31082-0.56009 0.28778-1.3031 0.33485-2.4131 0.31082z" fill="#FD7513"/>
<path d="m338.63 353.9c-0.51092 0.24945-1.3946 0.42068-2.4595 0.337 0.57477-0.30841 1.3308-0.36182 2.4595-0.337z" fill="#CD173C"/>
<path d="m376.67 353.91c-0.24335 0.23102-0.81891 0.38419-1.5372 0.30539 0.30652-0.28244 0.75577-0.33282 1.5372-0.30539z" fill="#CD173C"/>
<path d="m240.68 353.89c-0.24498 0.23349-0.82362 0.38864-1.5448 0.30862 0.3087-0.28574 0.7599-0.33633 1.5448-0.30862z" fill="#CD173C"/>
<path d="m324.67 353.91c-0.2428 0.23102-0.81793 0.3848-1.5364 0.30713 0.30579-0.28241 0.75494-0.3334 1.5364-0.30713z" fill="#CD173C"/>
<path d="m249.67 353.9c-0.24269 0.23077-0.81821 0.3862-1.5372 0.30966 0.30582-0.28302 0.75508-0.33405 1.5372-0.30966z" fill="#CD173C"/>
<path d="m377.34 224c0.23291-0.21292 0.7901-0.35651 1.4915-0.28525-0.29291 0.26141-0.73007 0.308-1.4915 0.28525z" fill="#FD7513"/>
<path d="m400.34 306c0.22519-0.22552 0.77451-0.38147 1.4743-0.33136-0.28308 0.271-0.71664 0.33597-1.4743 0.33136z" fill="#FF9703"/>
<path d="m272.75 353.91c-0.02298 0.1777-0.2991 0.29105-0.66718 0.23483 0.076691-0.21277 0.24536-0.25598 0.66718-0.23483z" fill="#CD173C"/>
<path d="m397.27 264.89c-0.087494-0.42798 0.15158-0.53839 0.58032-0.24365 0.094086 0.13135-0.34936 0.28742-0.58032 0.24365z" fill="#FD740A"/>
<path d="m372.75 353.92c-0.022553 0.17764-0.298 0.29132-0.66568 0.23605 0.076111-0.21262 0.24445-0.25632 0.66568-0.23605z" fill="#CD173C"/>
<path d="m394.75 353.93c-0.023926 0.17718-0.29797 0.28403-0.66278 0.22464 0.077057-0.20914 0.24487-0.25204 0.66278-0.22464z" fill="#CD173C"/>
<path d="m307.23 107.66c-0.19662 0.12419-0.53729-0.001335-1.0407-0.34886 0.19043-0.11494 0.54352-0.007897 1.0407 0.34886z" fill="#FE7712"/>
<path d="m387.26 223.89c-0.094605-0.4222 0.14456-0.53825 0.58081-0.26146 0.098389 0.12764-0.34573 0.30241-0.58081 0.26146z" fill="#FD7513"/>
<path d="m259.26 99.94c0.022095-0.15346 0.28272-0.25488 0.62964-0.20362 0.086303 0.15267-0.39105 0.25568-0.62964 0.20362z" fill="#FE7712"/>
<path d="m106.87 305.31c0.18778-0.11194 0.501 0.019348 0.96223 0.36234-0.18025 0.10144-0.50853-0.00885-0.96223-0.36234z" fill="#25ADCE"/>
<path d="m201.81 181.33c0.1917-0.11787 0.52078 0.008865 1.0074 0.35193-0.18498 0.10844-0.52747 5.79e-4 -1.0074-0.35193z" fill="#FE7712"/>
<path d="m190.28 264.83c-0.001709-0.44043 0.25154-0.49783 0.61426-0.12598 0.071518 0.14334-0.39725 0.22311-0.61426 0.12598z" fill="#FD740A"/>
</svg>
