<svg enable-background="new 0 0 1024 1024" version="1.1" viewBox="0 0 1024 1024" xml:space="preserve" xmlns="http://www.w3.org/2000/svg">
<path d="m609.32 153.61c9.7661 5.5062 19.225 10.749 25.493 20.16 3.0117 4.5214 7.6601 6.1487 13.046 5.8885 2.6597-0.12851 5.3315 0.009903 7.9976-0.004867 7.0773-0.0392 13.042 2.4645 17.628 7.8989 7.7632 9.1984 14.221 19.307 20.245 29.689 2.1313 3.6725 2.8568 7.8424 2.5615 12.066-0.38532 5.5125 1.4594 10.121 5.0673 14.158 0.88776 0.99336 1.6619 2.0913 2.5779 3.056 6.5999 6.9505 10.119 15.139 10.133 24.787 0.007019 4.8515 0.76624 9.6008 1.9306 14.316 1.5022 6.0833-0.49939 11.501-3.6162 16.619-0.60321 0.99042-1.2988 2.0559-2.6715 1.9521-1.6392-0.12399-2.2189-1.5138-2.4791-2.7696-0.50452-2.4351-0.8725-4.9212-1.024-7.4029-0.8736-14.315-6.4692-26.817-15.096-37.952-4.5447-5.8661-8.3347-12.005-10.969-18.917-2.9153-7.6506-7.6599-13.962-14.123-19.021-9.5756-7.4947-19.206-14.927-28.585-22.662-5.509-4.543-11.071-5.7562-17.996-3.473-8.2021 2.7043-16.65 4.7248-25.28 5.7717-6.4771 0.78569-12.907 0.79463-19.406-0.081955-28.235-3.8083-53.013 3.878-74.279 22.823-2.5095 2.2356-5.1741 4.2325-8.1742 5.6954-17.063 8.3203-35.049 9.9629-53.57 7.0101-5.0642-0.80743-6.9344-2.2523-9.9645-6.3224 17.13 2.5043 32.3-1.257 46.511-9.9514-4.6031-6.441-10.228-7.3264-16.557-6.779-4.8035 0.41542-9.662 0.15234-14.481 0.43929-10.609 0.63165-19.454 5.2133-27.224 12.285-5.9126 5.3815-12.107 10.451-17.001 16.864-3.6596 4.7946-5.7502 10.144-5.7906 16.168-0.14124 21.063 0.42941 42.027 10.499 61.337 2.2047 4.2282 1.4757 8.3297 0.095795 12.562-4.3883 13.461-8.4672 27.007-10.014 41.158-0.86755 7.9361-1.8008 15.87-2.3985 23.829-0.42773 5.6939-2.126 10.705-5.938 15.007-5.2298 5.9021-9.234 12.586-12.717 19.654-3.795 7.7018-4.5092 15.568-2.2843 23.784 0.39157 1.446 0.80023 2.8898 1.1183 4.3526 0.55054 2.5316 2.0974 5.5045-0.59262 7.3649-2.6302 1.8191-5.5869 0.42493-7.8914-1.2833-2.7957-2.0723-5.2344-4.6192-7.9397-6.8231-1.5409-1.2553-3.287-2.5328-5.4549-1.5211-2.321 1.0832-2.5604 3.3381-2.6506 5.5306-0.054504 1.3236 0.20944 2.6575 0.2146 3.9872 0.006347 1.6266 0.37039 3.5954-1.7551 4.181-2.1043 0.57977-3.4913-0.81561-4.4706-2.448-1.6806-2.8013-1.8441-5.9958-2.1729-9.1504-0.19778-1.8973 0.53473-3.9798-1.0106-5.8206-0.44168 0.29846-1.1102 0.51523-1.1453 0.80792-1.1358 9.4749-1.9393 18.904 3.082 27.723 4.7087 8.2698 9.8958 16.204 15.841 23.643 2.5391 3.1769 5.6299 5.058 9.8223 5.0621 4.2453 0.00412 7.905-1.0572 10.366-4.8068 2.6619-4.0553 2.0537-8.3797-0.66772-11.668-4.098-4.9522-3.4652-9.8268-2.1689-15.434 1.6435-7.1093 2.4285-14.417 3.5887-21.638 0.17987-1.1197 0.049866-2.3737 1.2516-3.0831 5.0366 5.1848 16.68 106.98 14.328 126.01-3.3626-1.4526-4.8735-4.4807-6.6462-7.1102-2.6977-4.0015-4.9779-8.2856-7.696-12.272-2.4014-3.5218-5.4119-4.7327-9.2662-1.6685-3.3809 2.6877-7.5856 3.281-11.719 3.8909-1.5278 0.22534-3.6151 0.28143-4.0692-1.1393-1.7622-5.5139-6.1199-4.616-10.184-4.5779-2.2569 0.021118-3.6649-0.47028-3.953-3.223-0.93997-8.9828-1.4147-9.2559-11.065-8.6443-0.94067 1.78 1.2798 3.488 0.12457 5.2793-1.2486 1.1016-2.5158 0.63312-3.661-0.10565-10.153-6.5494-18.557-14.246-18.461-27.685 0.01654-2.3032-0.57632-4.6157-0.93771-6.916-1.4666-9.3342-2.6966-10.893-12.077-12.37-4.9129-0.77319-8.2045-2.5778-10.201-7.3829-2.4285-5.8442-8.2123-6.7868-13.656-7.8456-1.7606-0.34244-3.6658-0.11002-5.444-1.637 3.1496-5.2328 10.726-6.2018 12.518-12.904-4.2641-1.7218-7.8633 2.005-11.762 1.0077 0.24475-6.6033-0.40958-7.1187-7.4348-6.1906-1.7454 0.23059-3.5949 1.0307-5.3152-0.8732 1.0324-2.9579 3.8251-4.3496 5.9879-6.212 6.067-5.2244 12.309-10.284 16.747-17.058 1.6179-2.4691 4.3248-5.3614-0.45788-7.7355-1.144-0.56787-1.3881-2.0568-0.43768-3.0403 4.9312-5.103 3.0648-9.1711-1.7573-12.916-0.32748-0.25433-0.3645-0.88269-0.59839-1.5001 3.7673-3.3246 8.3373-2.8437 12.767-2.8069 6.6083 0.055023 8.8844-1.6087 10.896-7.8367 2.8751-8.9023 2.9822-17.631-1.1028-26.241-1.283-2.704-2.173-5.5956-3.4729-8.2903-12.909-26.763-8.0288-52.097 6.1261-76.672 4.7629-8.269 11.058-15.417 17.006-22.818 6.3177-7.8611 11.32-16.006 12.118-26.756 0.68393-9.2117 6.2667-17.087 11.264-24.792 11.887-18.33 25.087-35.687 38.682-52.784 12.562-15.797 29.089-22.72 48.665-23.625 10.675-0.49327 21.292-0.22543 31.745 2.5554 8.7781 2.3352 17.894 1.3768 26.836 2.1966 4.4632 0.4092 8.9618 0.30486 13.44 0.93387 5.0133 0.70418 9.9267 0.068115 14.619-2.1402 33.456-15.744 65.915-11.993 97.992 5.2784z" fill="#888"/>
<path d="m389.9 607.56c1.1956-4.4073 2.0997-8.4634 4.5346-11.845 2.6834 0.006836 4.0106 1.9347 5.6633 3.2324 11.792 9.2596 22.416 19.938 34.724 28.576 9.3236 6.5428 19.118 12.102 30.15 15.321 9.3764 2.7356 16.007 9.3734 22.161 16.462 4.9117 5.6579 9.5682 11.542 14.212 17.425 3.08 3.9016 6.7157 6.2694 11.922 6.028 4.0934-0.18982 7.9813 2.0446 12.118 1.5991 1.1733-2.4128-0.24622-4.106-1.073-5.8147-6.4217-13.272-17.005-22.894-28.245-31.903-7.0159-5.6231-14.52-10.659-20.808-17.151-2.0101-2.0753-4.4271-4.0744-3.9008-7.554 2.8363-1.3264 5.1079 0.17578 7.2415 1.1923 9.7731 4.656 19.245 9.6976 27.738 16.671 9.1516 7.5144 20.747 9.4627 32.018 11.804 11.013 2.2877 22.168 2.2731 33.328 2.0071 3.5602-0.084839 6.2927 0.47345 6.5933 4.8101 0.16748 2.4171 2.218 3.0828 4.1389 3.7795 7.1777 2.6033 7.1651 2.6114 5.5949 10.266-0.090637 0.44183 0.15564 0.95276 0.28308 1.6345 4.3352 1.6501 8.5212-0.24158 12.649-0.89227 5.5967-0.88208 10.57 0.089172 15.291 3.0148 6.9756 4.3228 12.89 10.002 19.276 15.078 4.5536 3.6199 9.1285 6.5433 15.484 4.6307 3.5454-1.0669 4.9913 0.58417 4.541 4.6042-1.166 10.412-2.1779 20.846-2.3438 31.351-0.058593 3.7115 1.1982 5.9307 4.5273 7.404 3.0538 1.3516 6.0389 2.8829 9.3721 3.3456 17.73 2.4615 34.143 8.6318 49.642 17.438 1.8785 1.0674 3.7838 2.2869 5.8363 2.8132 7.3657 1.8887 10.595 6.9666 11.385 14.055 0.51593 4.6295 0.88995 9.2747 1.3645 13.909 0.46393 4.5314-1.0571 7.0156-6.1018 6.5432-1.9476-0.18243-4.05 0.025818-5.9277 0.57922-8.0452 2.3713-15.765 1.1596-23.501-1.4694-12.612-4.2859-25.334-8.25-37.906-12.647-4.1122-1.4382-7.1948-1.2898-10.2 2.1819-2.603 3.0077-5.7305 5.5666-8.6683 8.2783-5.2621 4.8568-11.475 7.2311-18.656 7.1075-2.6641-0.045899-5.3326 0.022094-7.9962 0.11993-3.5187 0.12927-5.3185 1.5704-6.5052 5.3734-3.6611 11.733-8.5558 23.066-11.636 35.013-0.73669 2.8574-2.7586 4.9455-5.4384 6.2188-5.6719 2.695-9.4669 7.2081-12.487 12.536-2.4722 4.3617-5.2777 8.4883-8.8929 12.01-2.051 1.9977-4.2713 4.2185-7.0731 4.4886-12.588 1.2134-23.637 7.9532-36.032 9.7402-1.1516 0.16608-2.3088 0.30292-3.4677 0.40692-3.3848 0.30396-4.7587-1.2972-3.774-4.4867 1.908-6.1801 1.6156-12.516 1.6157-18.834 1.22e-4 -16.997-0.10101-33.994-0.027526-50.99 0.016784-3.897-1.0925-7.0773-3.7538-9.9558-2.9338-3.1734-5.9186-6.4092-8.2045-10.044-2.6508-4.2147-6.2129-5.658-10.88-5.6265-7.9979 0.054016-15.999-0.14368-23.995-0.027222-12.866 0.18738-25.107-2.4628-36.931-7.4492-12.731-5.3687-25.542-10.428-39.05-13.732-13.895-3.3986-18.75-9.8788-20.315-24.233-1.061-9.7328-0.71744-19.629-3.651-29.165-0.98999-3.2183-0.19904-6.6799 1.2762-9.7435 5.0587-10.506 6.2202-21.583 5.5889-33.087-0.52802-9.6202-1.0421-19.321 5.3671-27.758 1.6931-2.2288 1.6458-5.3437 1.6435-8.2169-0.00708-8.6624 0.0495-17.325 0.16205-26.425z" fill="#888"/>
<path d="m736.82 381.12c6.7463 4.7721 12.419 10.143 16.626 16.868 2.4479 3.9142 5.511 5.3034 10.077 4.2332 2.9922-0.70142 6.1763-1.053 9.6526 0.054687-1.1152 3.4327-3.8534 5.215-5.9922 7.3725-3.5511 3.5822-5.9471 7.5765-5.8325 12.78 0.05188 2.3547-0.5871 4.1328-3.1492 5.0033-4.3057 1.4629-4.3282 6.6685-7.9895 9.172-4.5683 3.1237-0.33215 7.2427 0.55164 10.803 0.95837 3.861 2.5533 7.5625 3.8404 11.344 0.63611 1.8689 1.3593 3.7554 0.24255 5.7859-2.4399 0.2056-3.3237-1.9656-4.8317-3.0964-3.2783-2.4585-6.7547-3.7249-10.673-1.7368-4.0198 2.0396-5.0043 5.6299-4.2811 9.7383 1.832 10.407 1.6425 20.475-3.6118 30.083-1.23 2.2492-1.324 5.1251-1.9086 7.7198-0.35724 1.586-0.3042 3.3987-2.3574 3.9399-0.34772-0.11716-0.83588-0.13245-0.93506-0.33667-3.4326-7.0679-3.7618-7.1163-9.698-1.38-4.5763 4.4222-8.5431 9.3158-11.721 14.849-0.86932 1.5137-1.3496 3.4703-3.5436 3.9053-2.1061-1.4589-0.33478-3.3795-0.61255-5.0289-0.08197-0.48688 0.18329-1.1962-0.070068-1.4664-6.2712-6.6862 0.12909-10.356 3.455-14.767 0.28406-0.37677 0.39929-0.88083 0.61548-1.3774-4.194 0.8678-6.807 3.6549-9.3781 9.5338-3.9993 9.1449-11.359 15.12-20.039 21.552 0.29968-9.203 2.2936-16.899 3.8131-24.615 5.9705-30.319 11.909-60.645 16.37-91.229 2.7852-19.096 4.0101-38.354 5.2329-57.603 0.17877-2.8145 0.50024-5.6378 1.0153-8.4088 0.75659-4.0704 2.5905-4.6008 5.683-1.7012 1.2074 1.132 2.2138 2.4832 3.2763 3.7639 7.5817 9.1391 15.733 17.663 26.173 24.246z" fill="#888"/>
<path d="m425.36 384.35c8.6123-3.9295 15.69-9.0817 22.041-15.776 7.6136-8.0251 16.866-12.691 28.852-12.103 16.955 0.83209 33.982 0.17844 50.978 0.22183 6.397 0.016327 12.612 0.91977 18.247 4.306 2.9861 1.7943 4.501 4.4283 6.0247 7.5734 5.0633 10.451 6.9415 21.426 6.8112 32.866-0.024841 2.1841 0.87701 5.1846-2.1649 5.9578-2.5947 0.65958-4.0482-1.7692-5.6166-3.47-1.0869-1.1785-1.4052-3.0775-3.3166-3.5721-2.6344 1.2944-1.4566 3.3152-0.95001 5.146 0.88629 3.2025 2.1045 6.36 1.8915 9.7416-0.15247 2.4206-0.89362 4.8177-3.688 5.2827-2.94 0.4892-4.0856-1.7339-4.8166-4.063-1.5366-4.8961-2.0021-10.173-5.1756-14.478-0.47253-0.64105-1.0724-1.1883-1.5366-1.6951-0.57367 0.16208-1.0611 0.15451-1.1644 0.35001-3.7932 7.1749-3.0262 6.9838-11.325 3.0638-3.4608-1.6348-6.9512-3.2132-10.476-4.7052-3.2167-1.3616-5.3347-0.4017-6.5883 3.0179-4.2156 11.499-14.327 14.47-24.213 7.2617-1.7094-1.2465-3.1573-3.0327-5.5378-3.0709-2.1122 3.9113-0.92926 6.4983 3.9694 8.3705 7.3156 2.796 14.717 2.068 22.128 0.36224 2.9167-0.67126 5.837-1.3698 8.7921-1.8137 1.4743-0.2215 3.1427 0.07547 3.7312 1.8001 0.58081 1.7022-0.48666 2.9116-1.7852 3.7627-12.438 8.1529-31.251 9.5071-43.886 0.45316-1.3781-0.98746-2.532-2.2831-3.0023-3.9085-1.2856-4.4441-4.009-4.3997-7.7403-3.0901-13.663 4.7953-30.027-3.4297-34.376-16.973-1.4627-4.5562-0.94919-8.1981 3.8934-10.818m52.095 3.3112c-1.5108 0.84232-3.5026 1.1708-3.8259 3.827 4.5135-0.7229 8.7763-1.3979 12.998-4.0188-3.1975-2.0463-5.8379-0.51056-9.1722 0.1918z" fill="#888"/>
<path d="m618.55 540.46c9.1995 2.638 13.888 8.6462 15.223 17.589 0.28247 1.8916 0.15759 3.685-0.60187 5.3713-1.2841 2.8513-3.6594 4.1114-5.7817 1.4446-6.7538-8.4866-16.31-9.2062-25.783-9.3949-21.783-0.43384-43.528-0.6225-65.177 3.3876-8.4814 1.5711-17.102 1.8958-25.107 5.6716-3.7952 1.7901-7.8012 1.0038-10.491-2.218-2.844-3.4061-0.59979-6.7332 1.6915-9.4012 4.5507-5.2988 9.3386-10.398 14.13-15.484 1.7855-1.8954 4.2653-2.4514 6.8013-2.7488 12.723-1.4919 20.884-17.867 14.284-28.933-2.4058-4.0334-3.5982-8.1816-3.1921-12.818 0.12988-1.4828 0.063355-3.1786 1.8136-3.7769 1.4874-0.50845 2.5165 0.6076 3.4201 1.565 4.4772 4.7435 10.045 6.7542 16.468 7.2311 8.5388 0.634 16.392 4.2511 24.645 6.158 6.4406 1.4882 12.828 3.6533 19.63 1.762 2.5739-0.71567 3.9691 1.249 5.046 3.1989 3.8074 6.8931 6.612 14.167 7.7476 21.989 0.5404 3.7223 1.1439 7.2828 5.234 9.4075m-44.406 0.34631c-0.86627 0.20331-2.3945 0.22974-1.0999 1.5862 1.4221 1.4899 3.1873 2.0092 4.8166 0.12946-0.60797-1.8529-1.9083-1.8296-3.7167-1.7156z" fill="#888"/>
<path d="m673.27 419.37c-6.8719-0.40832-11.313-4.6732-16.166-8.1044-6.4855-4.5847-6.4664-4.6117-12.345 0.672-6.3914 5.7448-14.174 6.1705-20.399 1.1157-5.674-4.6073-5.6697-4.6027-11.173 0.52167-0.4773 0.4444-1.0595 0.77603-1.4622 1.0659-1.839 0.076508-2.4351-1.2892-3.1901-2.3055-1.5857-2.1344-3.462-3.0038-6.0426-1.915-4.2744 1.8036-5.8469-0.78976-6.5338-4.2834-0.57953-2.9474-0.35394-5.9593 0.084229-8.9411 0.89801-6.11 1.5336-12.227-0.45685-18.258-0.79126-2.3974-0.10968-4.0823 1.8993-5.6035 2.9115-2.2045 5.8752-4.4257 8.3909-7.0483 4.4339-4.6224 9.5807-5.4107 15.53-4.0752 14.787 3.3197 28.688 9.6115 43.492 12.859 6.0005 1.3164 11.947 2.7048 18.195 2.6377 6.5563-0.070343 10.62 5.6821 8.8159 11.971-0.97376 3.3954-2.7975 6.4118-4.8553 9.2362-3.5669 4.8957-6.0257 9.9513-3.855 16.22 0.35321 1.0198 0.049683 2.2671 0.049683 3.5406-3.2688 1.2764-6.4398 0.54535-9.9782 0.6955m-12.267-18.051c2.6213 1.2421 4.4344 3.869 7.5173 4.7448-0.52454-6.7009-19.511-14.713-26.994-11.092 6.9742 1.1675 13.282 2.5071 19.477 6.3473z" fill="#888"/>
<path d="m489.87 452.17c8.0172 2.0691 14.467-0.12625 20.089-5.3427 0.72665-0.67426 1.4901-1.3378 2.33-1.8543 1.2812-0.78784 2.697-1.5748 4.162-0.53864 1.6991 1.2017 1.2513 2.9138 0.72223 4.5211-2.3133 7.0271-12.572 13.963-19.979 13.207-8.6803-0.88525-16.858-3.5385-24.388-8.0054-1.2685-0.7525-2.4349-1.7357-3.491-2.7727-1.2317-1.2094-2.2072-2.791-1.0694-4.4304 1.0891-1.5693 2.7659-0.67578 4.1086-0.17416 5.6006 2.092 11.274 3.9304 17.515 5.3897z" fill="#888"/>
<path d="m573.96 562.66c4.3085 0.020019 8.1499-0.078003 11.852 1.009 3.7073 1.0884 4.3858 3.4705 1.7144 6.1961-2.3607 2.4086-5.2629 4.1951-8.5854 4.7642-8.6923 1.4885-17.148 0.021484-25.397-2.7418-1.9371-0.64886-3.5981-2.1272-3.3392-4.4334 0.27368-2.4373 2.1002-3.6292 4.4111-4.0833 6.2458-1.2275 12.565-0.52057 19.344-0.71075z" fill="#888"/>
<path d="m639.18 454.6c5.0079 0.11392 9.2198-1.3956 13.453-2.8819 1.3509-0.47424 2.9785-1.3044 4.1835 0.082062 1.3085 1.5054 0.43701 3.1196-0.36066 4.6045-2.4652 4.5893-10.988 8.8619-16.822 7.6513-8.1563-1.6925-14.975-6.0891-20.72-12.108-0.58368-0.6116-0.85773-1.4136-0.12768-2.9245 6.7664 0.95859 12.793 5.6215 20.393 5.5764z" fill="#888"/>
<path d="m609.77 484.33c0.61762-2.6043 0.22089-5.6292 2.9136-6.2794 2.9589-0.71445 4.3005 2.1151 5.5375 4.1549 3.2596 5.3751 6.2838 10.893 9.3945 16.359 1.8905 3.3215 0.30145 4.5791-2.9034 4.7343-0.97302 0.047088-2.0863 0.032043-2.9213-0.3841-4.1774-2.0818-8.5549-3.277-13.915-2.7722 1.3425-5.5446 2.1075-10.415 1.8943-15.812z" fill="#888"/>
<path d="m625.34 427.89c-1.8973-1.8827-4.2216-3.5349-2.9494-6.0728 1.1964-2.3869 3.8648-1.3272 5.8948-1.0963 5.2579 0.59787 10.499 1.3636 15.73 2.1678 1.5571 0.23938 3.3455 0.26593 4.2123 2.0251-4.1804 5.6583-14.251 7.066-22.888 2.9763z" fill="#888"/>
</svg>
