<svg enable-background="new 0 0 1280 1280" version="1.1" viewBox="0 0 1280 1280" xml:space="preserve" xmlns="http://www.w3.org/2000/svg">
<path d="m449 559v-320.69h74.741v370.3h-74.741v-49.604z" fill="#009FE3"/>
<path d="m545.98 238.92c1.025-0.30499 2.0494-0.87412 3.075-0.87618 22.988-0.046295 45.976-0.031692 68.964-0.015701 0.4729 3.2e-4 0.94568 0.15343 1.694 0.28291v304.52c-24.441 0-48.857 0-73.497-0.84241-0.22772-101.58-0.23138-202.32-0.23511-303.06z" fill="#C7D302"/>
<path d="m146.83 795c2.1206 6.1e-5 3.7657 6.1e-5 5.8546 6.1e-5 1.6546 9.0457 3.2597 17.821 4.959 27.112 3.0043-3.4476 5.7033-6.6373 8.5005-9.7383 11.247-12.468 25.257-18.792 41.998-20.591 15.081-1.6211 29.111 0.54205 42.619 7.1431 16.298 7.9646 26.429 21.361 33.258 37.668 6.4988 15.519 9.1733 31.722 10.176 48.515 1.373 22.986-0.57718 45.357-8.1684 67.13-6.2257 17.857-16.53 32.717-33.216 42.215-9.2021 5.2376-19.352 8.0945-30.064 8.5573-14.076 0.60809-27.607-1.2327-40.334-7.8228-9.1165-4.7208-16.248-11.563-22.508-19.485-0.50186-0.63513-0.71783-1.4962-1.8936-1.4351v116.35h-33.568v-295.62c7.3545 0 14.632 0 22.386 6.1e-5m13.204 125.16c0.99167 5.32 1.6959 10.713 3.033 15.945 3.0792 12.049 7.8933 23.043 18.819 30.376 11.25 7.5511 23.859 8.7986 36.563 7.0926 14.294-1.9197 24.352-10.199 30.67-23.513 7.1051-14.972 8.6809-30.937 9.7478-47.004 0.46866-7.0584-0.67099-14.211-0.82623-21.326-0.24277-11.126-2.2126-21.921-6.1012-32.313-4.7005-12.562-12.141-22.558-25.698-26.796-10.357-3.2376-20.642-3.2037-31.148-0.79004-14.354 3.2977-23.742 11.936-29.113 25.471-4.9957 12.59-6.2777 25.856-6.8191 39.118-0.44539 10.909 0.51266 21.875 0.8739 33.74z" fill="#696969"/>
<path d="m697.02 904h-11.566c0.88208 7.5128 1.4601 14.63 2.5994 21.656 2.0178 12.444 6.2661 24.086 15.38 33.139 8.2667 8.2113 18.6 12.037 30.255 13.319 20.002 2.1997 39.007-1.59 57.677-8.1412 4.3898-1.5403 8.6321-3.5012 13.626-5.549 0 10.273 0.076233 19.727-0.10431 29.177-0.020691 1.0824-1.247 2.6652-2.3025 3.125-13.121 5.7155-26.477 10.673-41.012 11.275-8.2667 0.34216-16.561 1.2676-24.796 0.89276-31.583-1.4379-56.647-14.491-72.674-42.547-7.7699-13.602-12.102-28.378-13.06-44.021-0.607-9.9127-1.4904-19.903-0.8916-29.776 1.4534-23.967 7.3321-46.905 22.33-66.12 11.238-14.398 26.077-23.961 44.619-27.574 18.854-3.6743 36.969-1.8126 54.027 6.3582 13.563 6.497 23.867 17.148 30.826 30.671 6.3246 12.29 10.866 25.146 11.027 39.164 0.13116 11.41 0.026673 22.824 0.026673 34.953h-115.99m25.935-82.946c-26.539 6.2125-36.669 35.858-35.523 54.7h89.7c-1.1898-11.708-1.9217-23.131-7.0854-33.831-5.2646-10.909-13.662-18.058-25.306-20.353-6.7491-1.3298-13.934-0.448-21.785-0.51599z" fill="#009FE3"/>
<path d="m375.3 860.6c3.8577 10.715 7.7294 21.012 11.175 31.449 6.4381 19.503 12.722 39.059 18.85 58.662 1.3603 4.3513 1.7875 8.9917 2.6913 13.49 0.28 1.3935 0.7149 2.756 0.26096 3.6247 18.266-57.577 36.532-115.15 54.743-172.56h36.442c-3.0505 8.8105-5.9315 17.14-8.8183 25.468-10.558 30.457-21.084 60.924-31.686 91.365-9.6124 27.599-19.022 55.274-29.062 82.717-7.508 20.522-15.039 41.112-24.126 60.956-7.3838 16.125-19.991 27.902-37.802 32.613-12.291 3.2509-24.794 2.8131-37.274 0.95898-3.3974-0.50464-6.7824-1.0924-10.414-1.681v-27.526c4.0361 0.33887 7.9633 0.30066 11.73 1.0593 8.4836 1.7087 16.781 0.92407 24.977-1.3068 11.264-3.0659 18.207-11.248 22.575-21.333 4.9592-11.451 8.9247-23.339 13.077-35.124 0.59082-1.6769 0.22827-4.0002-0.42029-5.7557-6.9322-18.763-13.988-37.48-21.057-56.192-5.2747-13.963-10.693-27.871-15.914-41.853-10.236-27.411-20.377-54.858-30.56-82.289-2.6708-7.1948-5.3505-14.386-8.2138-22.084h36.243c7.4404 21.581 14.923 43.282 22.583 65.339z" fill="#696969"/>
<path d="m693 238h22.701v203.74h-74.313v-203.74h51.612z" fill="#F07E16"/>
<path d="m561 220c-38.158-3.1e-5 -75.815 0.003159-113.47-0.00238-9.0667-0.001328-16.16-4.5726-18.596-11.946-2.9306-8.8738-0.64545-17.204 7.0475-22.279 2.8123-1.8553 6.8147-2.6409 10.28-2.6583 36.657-0.18382 73.315-0.11383 109.97-0.11383 85.48 0 170.96 0.15192 256.44-0.15706 13.455-0.048645 23.565 11.836 18.048 26.734-2.2042 5.9519-9.9732 10.419-17.778 10.42-59.153 0.006806-118.31 0.003739-177.46 0.003754h-74.483z" fill="#696969"/>
<path d="m902.83 974c13.148 1.3924 25.459 0.19428 37.096-5.4434 11.547-5.5944 14.787-17.957 12.473-28.669-2.4426-11.308-11.265-17.043-20.45-21.763-16.384-8.4203-33.349-15.715-49.691-24.21-13.497-7.0157-24.641-16.757-28.367-32.468-4.6179-19.469-2.478-37.631 12.566-52.245 9.6301-9.3542 21.862-14.126 34.974-16.084 8.5974-1.2837 17.383-2.2135 26.046-1.96 17.719 0.51856 34.903 4.1102 51.086 11.717 1.8998 0.89294 3.905 1.5618 6.2825 2.501-3.6423 8.5692-7.253 17.013-10.816 25.476-1.0637 2.527-2.4451 2.1592-4.7239 1.329-9.2805-3.381-18.549-6.941-28.082-9.4504-15.18-3.9962-30.576-4.7646-44.995 2.7335-12.519 6.5104-14.475 21.163-6.7276 32.459 5.556 8.1011 14.37 11.935 22.863 16.061 17.097 8.3059 34.69 15.75 51.133 25.196 16.191 9.3015 23.565 24.467 23.657 43.496 0.069519 14.382-3.4246 27.299-12.712 38.144-6.6696 7.7875-15.506 12.726-25.234 16.289-17.605 6.4476-35.883 6.6835-54.089 5.6743-15.914-0.88214-31.671-3.7605-45.95-12.387v-32.033c17.159 8.3324 34.473 14.538 53.66 15.635z" fill="#009FE3"/>
<path d="m617.79 971.95c1.8206-0.40985 3.2024-0.78613 5.1989-1.3298 0 8.5305 0.11249 16.498-0.13867 24.454-0.032287 1.024-1.7789 2.4402-3.0212 2.9127-17.787 6.7641-36.073 7.0559-54.004 1.7032-13.311-3.9736-22.041-14.108-25.657-27.468-2.6208-9.6844-4.7963-19.819-4.9416-29.785-0.56104-38.487-0.22742-76.987-0.22717-115.48v-5.9126h-28.996c0-4.9607-0.20145-9.4324 0.13922-13.862 0.087006-1.1314 1.7049-2.4838 2.9366-3.1326 7.0834-3.7314 14.146-7.546 21.459-10.78 3.5328-1.5622 5.3378-3.8411 6.4517-7.305 4.0634-12.635 8.2628-25.227 12.384-37.753h20.459v46.543h50.835v26.201h-50.669v4.8757c0 39.162-0.15527 78.324 0.13 117.48 0.057678 7.9161 1.5617 15.778 6.2696 22.755 3.3323 4.9387 7.9048 7.7387 13.354 7.7475 8.5321 0.013733 17.066-1.1376 25.6-1.7866 0.6637-0.050476 1.3326-0.03241 2.4379-0.079773z" fill="#009FE3"/>
<path d="m1010 817.81c-1.7791-9.7482 1.9969-14.65 10.823-18.546 18.294-8.0749 17.99-8.7132 24.181-27.68 2.2177-6.7935 4.8594-13.461 6.7694-20.336 0.77978-2.8069 2.0609-3.3154 4.4905-3.2759 5.3236 0.086609 10.65 0.026855 16.492 0.026855v46.857h50.962v26.024h-50.719v5.5936c0 37.329-0.22693 74.66 0.18347 111.98 0.086425 7.8569 1.7145 15.94 4.0929 23.457 2.2017 6.9575 7.8756 11.165 15.588 12.124 10.046 1.2482 19.756-0.5155 29.461-2.6946 1.056-0.23712 2.1807-0.16956 3.6707-0.27008 0 8.1285 0.17615 15.944-0.16284 23.737-0.060669 1.3961-2.0203 3.5-3.4912 3.9212-13.509 3.868-27.179 5.4371-41.294 3.4637-9.986-1.3961-19.204-4.178-26.476-11.254-8.606-8.3743-12.904-19.133-14.509-30.815-4.0199-29.256-1.4597-58.698-2.0074-88.054-0.31348-16.803-0.056763-33.616-0.056763-51.074-8.1998 0-16.131 0.015686-24.062-0.011475-1.8754-0.006408-4.324 0.67651-3.9349-3.1769z" fill="#009FE3"/>
<path d="m798.98 238h11.701v125.72h-74.278v-125.72h62.577z" fill="#DF2815"/>
<path d="m740.19 164c-2.6518 0.15146-4.3661 0.032822-4.2389-3.0109 0.19995-4.7843 0.053101-9.5832 0.053101-14.675h74.704v17.686c-23.305 0-46.672 0-70.518-5.19e-4z" fill="#DF2815"/>
<path d="m641 154.03v-7.7148h74.734v17.285h-74.734v-9.5702z" fill="#F07E16"/>
<path d="m453.17 146c23.766-1.83e-4 47.051-1.83e-4 70.58-1.83e-4v17.621h-74.736c0-5.1387-0.14035-10.408 0.16318-15.652 0.041779-0.72163 2.2866-1.3157 3.9933-1.9691z" fill="#009FE3"/>
<path d="m588 145.99h31.677v17.745c-0.91736 0.085449-1.8597 0.24924-2.8021 0.24986-22.277 0.014831-44.554-0.073593-66.83 0.092544-3.9548 0.029511-5.1572-1.1577-5.1335-5.1191 0.077271-12.967-0.070007-12.968 12.664-12.968h30.424z" fill="#C7D302"/>
<path d="m545.59 239.13c0.39081 100.53 0.39447 201.27 0.39282 302.48-0.3316-0.69904-0.94287-1.8718-0.94336-3.0448-0.041442-99.249-0.035827-198.5-0.024902-297.75 6.1e-5 -0.4931 0.12286-0.98621 0.57544-1.6921z" fill="#ff0"/>
</svg>
