<svg enable-background="new 0 0 103.12 122.88" version="1.1" viewBox="-13.44 -4.06 130 130" xmlns="http://www.w3.org/2000/svg">
  <style type="text/css">.st0{fill-rule:evenodd;clip-rule:evenodd;}</style>
  <path class="st0" d="m72.17 35.82 16.44 0.06c-0.02 4.38-1.78 8.58-4.9 11.65-0.74 0.73-1.54 1.38-2.4 1.96l-9.14-13.67zm-70.99 86.19c-0.69-0.32-1.18-1.01-1.18-1.83v-118.18c0-1.1 0.89-2 2-2h99.12c1.1 0 2 0.89 2 2v107.73c0 0.11-0.01 0.21-0.02 0.31-0.28 3.93-1.56 6.99-3.86 9.18-2.3 2.18-5.53 3.4-9.72 3.64-0.09 0.01-0.17 0.02-0.26 0.02h-86.43c-0.68 0-1.29-0.35-1.65-0.87zm34.32-87.11h5.01c0.27 0 0.48 0.22 0.48 0.48v9.85c0 0.27-0.22 0.48-0.48 0.48h-5.01c-0.27 0-0.48-0.22-0.48-0.48v-9.85c0-0.26 0.21-0.48 0.48-0.48zm-18.65-6.03h5.01c0.27 0 0.48 0.22 0.48 0.48v15.89c0 0.27-0.22 0.48-0.48 0.48h-5.01c-0.27 0-0.48-0.22-0.48-0.48v-15.89c-0.01-0.26 0.21-0.48 0.48-0.48zm9.33-3.39h5.01c0.27 0 0.48 0.22 0.48 0.48v19.28c0 0.27-0.22 0.48-0.48 0.48h-5.01c-0.27 0-0.48-0.22-0.48-0.48v-19.28c-0.01-0.27 0.21-0.48 0.48-0.48zm72.95 84.2v-105.69h-95.14v114.9h85.3c3.21-0.18 5.61-1.04 7.2-2.55 1.57-1.49 2.44-3.72 2.64-6.66zm-82.31-3.04c-1.09 0-1.98-0.89-1.98-2 0-1.1 0.88-1.99 1.98-1.99h70.5c1.09 0 1.98 0.89 1.98 1.99s-0.88 2-1.98 2h-70.5zm0.32-14.56c-1.09 0-1.98-0.89-1.98-2 0-1.1 0.88-2 1.98-2h70c1.09 0 1.98 0.89 1.98 2 0 1.1-0.88 2-1.98 2h-70zm-0.32-14.56c-1.09 0-1.98-0.89-1.98-2 0-1.1 0.88-1.99 1.98-1.99h30.13c1.09 0 1.98 0.89 1.98 1.99s-0.88 2-1.98 2h-30.13zm37.82 0c-1.09 0-1.98-0.89-1.98-2 0-1.1 0.88-1.99 1.98-1.99h32.5c1.09 0 1.98 0.89 1.98 1.99s-0.88 2-1.98 2h-32.5zm-37.82-12.99c-1.09 0-1.98-0.89-1.98-2 0-1.1 0.88-2 1.98-2h24.84c1.09 0 1.98 0.89 1.98 2 0 1.1-0.88 2-1.98 2h-24.84zm0-50.62c-1.09 0-1.98-0.89-1.98-2s0.88-2 1.98-2h14.84c1.09 0 1.98 0.89 1.98 2s-0.88 2-1.98 2h-14.84zm53.67 18.65-0.88-17.57c-0.02-0.35 0.25-0.64 0.6-0.66 0.1-0.01 0.22-0.01 0.35-0.01 0.11 0 0.23-0.01 0.35-0.01 4.83-0.05 9.25 1.78 12.56 4.82 3.31 3.05 5.5 7.31 5.84 12.13 0.02 0.35-0.24 0.65-0.58 0.67l-17.58 1.26c-0.35 0.02-0.65-0.24-0.67-0.58 0.01-0.02 0.01-0.04 0.01-0.05zm0.41-16.99 0.82 16.32 16.3-1.16c-0.46-4.23-2.45-7.96-5.38-10.66-3.08-2.84-7.21-4.54-11.7-4.49l-0.04-0.01zm-2.38 19.49 8.81 15.26c-2.68 1.55-5.72 2.36-8.81 2.36-9.73 0-17.62-7.89-17.62-17.62 0-8.74 6.41-16.17 15.06-17.43l2.56 17.43z" fill="#888"/>
</svg>
