<svg viewBox="-1 -2.5 12 12" xmlns="http://www.w3.org/2000/svg">
  <path d="M8.12 3.27c.45-.32 1.06-.46 1.78-.73l-.31-.7c-1.28.23-2.43-.53-3.68-.7C4 .75 2.24 1.9.36 2.04v.76c1.87.41 3.64 1.26 5.6 1.02-1.21 1.21-2.84 2.64-4.69 2.07C.63 5.77.35 4.87.96 4.6c.27 1.04 1.57.3 1-.52C1.57 3.6.54 3.82.24 4.3c-.87 1.65.84 2.56 2.31 2.32 1.86-.25 3.29-1.71 4.53-3.02-.02.61.18 1.96-.41 2.5l.01.9c.43-.34.8-1.07.92-1.56.16-.63.04-1.02.1-1.53.05-.23.1-.41.42-.64zM1.9 2.39c.77-.23 1.58-.58 2.39-.66-.42 1.38 1.81 1.54 1.56 0 .64.16 1 .3 1.94.7-2.06 1.02-4.05.56-5.89-.04z" fill="#888"/>
  <path d="M.36 1.81v-.8c.23 0 .84-.18 1.44-.35C2.8.36 4.05 0 4.95 0c1 0 2.05.34 2.82.58l.91.25c.62.07.98-.08.98-.08l.34.73c-.06.02-.56.24-1.41.15-.27-.03-.62-.14-1.06-.29C6.77 1.1 5.82.8 4.95.8c-.79 0-1.97.35-2.92.63-.74.21-1.32.38-1.67.38z" fill="#888"/>
  <svg x="7.5" y="5" width="3" height="3" fill="#FE0000" viewBox="0 0 1024 720">
    <path d="m487.42 108.8c37.425-3.5624 54.414 20.801 64.258 45.282 8.4798 21.089 11.838 43.584 13.687 66.225 1.6312 19.974 1.5266 39.981-0.25452 59.899-2.4232 27.099-8.0341 53.594-16.662 79.458-6.7921 20.361-15.597 39.716-28.137 57.15-15.562 21.637-34.388 39.35-60.628 47.461-28.838 8.9134-53.709 1.9108-70.044-25.388-10.443-17.451-15.276-36.845-18.819-56.546-3.5145-19.543-4.5607-39.353-3.9404-59.195 1.5503-49.595 9.8526-97.665 33.395-142.08 12.503-23.587 28.552-44.184 51.477-58.685 10.835-6.8535 22.668-11.121 35.67-13.581m29.389 177.81c1.2289-8.2386 1.6958-16.538 2.1672-24.847 1.4925-26.314 1.9362-52.619-2.4807-78.7-1.9135-11.299-4.6126-22.571-10.666-32.571-6.2683-10.355-15.635-13.63-27.032-9.7744-9.9169 3.3546-17.014 10.262-22.947 18.515-10.919 15.19-17.922 32.266-23.639 49.926-10.15 31.353-15.596 63.585-18.085 96.389-2.2105 29.139-2.2123 58.204 2.218 87.159 1.9727 12.892 4.3553 25.664 12.807 36.296 6.1809 7.7759 14.703 10.204 24.062 6.8932 10.035-3.5499 17.254-10.543 23.207-18.996 11.84-16.812 19.506-35.563 25.238-55.18 7.1039-24.313 12.14-49.049 15.152-75.109z"/>
    <path d="m759.25 99.929c8.1122 19.415 11.47 39.588 14.072 59.888 1.9059 14.872 2.4763 29.863 1.9998 44.857-1.6216 51.04-11.444 100.1-36.192 145.34-12.738 23.285-29.043 43.607-52.99 56.286-17.746 9.3958-36.427 14.776-56.642 8.2393-15.617-5.0496-25.475-16.45-32.951-30.317-9.1265-16.928-13.995-35.358-16.657-54.143-7.9891-56.376-3.7194-111.85 14.846-165.89 9.6795-28.172 23.611-54.013 44.829-75.35 13.488-13.564 29.239-23.489 47.877-28.66 24.154-6.7011 44.853 0.090336 60.156 20.129 4.5673 5.9807 8.2985 12.467 11.653 19.613m-132.95 126.67c-0.73584 6.7793-1.5182 13.554-2.1996 20.339-3.325 33.105-3.2639 66.138 2.2106 99.048 1.8701 11.243 4.5565 22.187 11.521 31.571 6.5878 8.8759 15.189 11.331 25.518 7.3577 7.3442-2.8249 13.281-7.4955 18.266-13.51 8.0532-9.7161 14.046-20.694 18.947-32.2 18.786-44.106 25.662-90.731 27.955-138.15 0.96405-19.934 0.91943-39.971-1.8051-59.854-1.9018-13.879-4.2227-27.69-10.966-40.217-4.4407-8.2493-11.222-13.337-21.006-12.417-7.8409 0.73706-14.579 4.3278-20.401 9.6825-9.8935 9.0999-16.393 20.496-21.98 32.469-14.079 30.171-21.157 62.281-26.06 95.877z"/>
    <path d="m287.41 234.42c-12.338 11.45-26.39 19.194-42.273 23.373-10.394 2.7348-19.306-1.2043-23.337-9.6168-2.7038-5.6423-2.3072-10.994 1.9905-15.756 1.671-1.8515 3.3362-3.8038 5.3385-5.2461 20.264-14.597 34.057-34.975 48.817-54.483 5.9348-7.8436 12.003-15.553 18.783-22.703 6.8188-7.1907 15.094-9.2639 24.577-7.6181 20.724 3.597 30.659 15.356 32.063 36.425 2.517 37.768-1.2359 75.177-5.7979 112.54-6.0556 49.593-15.542 98.575-27.334 147.11-8.2509 33.959-17.445 67.668-28.046 100.98-3.7108 11.66-11.178 16.477-22.104 14.703-6.8392-1.1104-10.205-4.8383-10.407-11.83-0.31857-11.02 1.1855-21.939 2.389-32.839 3.0107-27.267 7.342-54.349 12.526-81.289 4.4603-23.177 9.0824-46.324 13.448-69.519 3.7842-20.106 5.8959-40.462 8.2869-60.757 2.8015-23.781 5.8258-47.578 5.4012-71.614-0.034027-1.9267 0.50684-3.9821-1.2264-6.5372-4.5428 4.7984-7.9977 10.292-13.095 14.685z"/>
    <path d="m796.44 522.69c6.1323 8.2081 3.2842 16.592-6.2373 19.017-10.847 2.7633-22.047 3.157-33.102 4.4348-22.479 2.5984-44.815 6.0516-67.011 10.403-34.936 6.8495-69.623 14.842-103.75 24.954-23.587 6.9877-46.873 15-70.244 22.704-51.957 17.127-103.6 35.242-156.13 50.578-14.197 4.1447-28.467 8.1252-43.206 10.065-8.9977 1.184-13.99-4.692-11.191-13.383 1.7028-5.2875 5.2875-9.2051 9.3071-12.758 12.497-11.046 27.138-18.653 42.018-25.811 37.913-18.239 77.698-31.504 117.76-44.014 25.725-8.0333 51.754-15.013 77.908-21.461 28.881-7.1205 57.912-13.588 87.2-18.923 18.977-3.4565 37.969-6.8512 57.103-9.09 25.596-2.9947 51.236-6.6377 77.128-3.6961 7.7516 0.88068 15.599 1.7736 22.455 6.9807z"/>
    <path d="m759.74 440.88c4.214 1.2885 8.1293 2.2129 11.587 4.3156 4.756 2.8918 6.2374 6.8755 4.9949 12.902-1.028 4.9863-4.7897 6.7491-9.0941 7.1368-12.92 1.1638-25.87 2-38.808 2.9608-21.088 1.566-41.921 4.9768-62.754 8.4616-48.892 8.1784-95.932 23.302-143.18 37.728-37.696 11.51-75.264 23.511-113.72 32.355-6.3235 1.4542-12.708 2.6218-19.202 3.0483-7.4014 0.48614-11.123-4.1016-9.199-11.391 1.3302-5.0388 4.6003-8.7921 8.3219-12.217 8.8179-8.1155 19.261-13.726 29.93-18.833 31.341-15.001 64.278-25.576 97.724-34.694 19.251-5.2487 38.607-10.032 58.109-14.287 25.667-5.6005 51.494-10.141 77.496-13.891 28.564-4.12 57.182-6.5358 86.063-5.8827 7.2063 0.16296 14.248 1.1458 21.732 2.2886z"/>
  </svg>
</svg>
