<svg viewBox="-1 -2.5 12 12" xmlns="http://www.w3.org/2000/svg">
  <path d="M8.12 3.27c.45-.32 1.06-.46 1.78-.73l-.31-.7c-1.28.23-2.43-.53-3.68-.7C4 .75 2.24 1.9.36 2.04v.76c1.87.41 3.64 1.26 5.6 1.02-1.21 1.21-2.84 2.64-4.69 2.07C.63 5.77.35 4.87.96 4.6c.27 1.04 1.57.3 1-.52C1.57 3.6.54 3.82.24 4.3c-.87 1.65.84 2.56 2.31 2.32 1.86-.25 3.29-1.71 4.53-3.02-.02.61.18 1.96-.41 2.5l.01.9c.43-.34.8-1.07.92-1.56.16-.63.04-1.02.1-1.53.05-.23.1-.41.42-.64zM1.9 2.39c.77-.23 1.58-.58 2.39-.66-.42 1.38 1.81 1.54 1.56 0 .64.16 1 .3 1.94.7-2.06 1.02-4.05.56-5.89-.04z" fill="#888"/>
  <path d="M.36 1.81v-.8c.23 0 .84-.18 1.44-.35C2.8.36 4.05 0 4.95 0c1 0 2.05.34 2.82.58l.91.25c.62.07.98-.08.98-.08l.34.73c-.06.02-.56.24-1.41.15-.27-.03-.62-.14-1.06-.29C6.77 1.1 5.82.8 4.95.8c-.79 0-1.97.35-2.92.63-.74.21-1.32.38-1.67.38z" fill="#888"/>
  <g transform="matrix(.00409 0 0 .00409 9.2619 5.9315)" style="">
    <path d="m72.955 100.71c3.364-0.07 6.729-0.14 10.722 0.151 1.512 0.189 2.396 0.018 3.28-0.153 3.363-0.07 6.727-0.139 10.822 0.194 4.547 0.205 8.362 6e-3 12.178-0.192 3.033-0.07 6.066-0.139 9.636 0.065 0.811 0.16 1.087 0.046 1.362-0.068 0.445-0.067 0.89-0.134 1.804 0.132 1.044 0.179 1.62 0.026 2.196-0.127 5.359-0.07 10.717-0.139 16.624 0.064 0.822 0.165 1.096 0.059 1.371-0.048 4.897-0.163 6.09 0.917 4.896 5.115-2.351 8.267-5.133 16.414-7.391 24.704-1.235 4.531-4.065 5.216-8.179 5.211-79.241-0.083-158.48-0.06-237.73-0.06-7.49 0-14.99 0.207-22.47-0.151-1.92-0.092-4.94-1.564-5.45-3.079-3.22-9.529-5.88-19.246-8.69-28.913-0.13-0.428 0.15-0.97 1.04-1.652 6.54-0.186 12.27-0.064 18-0.219 3-0.082 5.99-0.648 8.98-0.996 7.69-0.066 15.374-0.132 23.769 0.194 2.883 0.201 5.057 9e-3 7.231-0.183 2.041-0.068 4.083-0.136 6.839 0.204 7.864 0.205 15.012 2e-3 22.161-0.202 0.443-0.067 0.886-0.134 1.86 0.169 1.733 0.19 2.936 0.01 4.139-0.17 2.7-0.07 5.399-0.141 8.811 0.191 3.872 0.204 7.031 6e-3 10.19-0.192 3.032-0.067 6.063-0.134 9.745 0.172 1.852 0.19 3.054 8e-3 4.255-0.174 0.443-0.068 0.886-0.136 1.796 0.132 1.045 0.181 1.624 0.026 2.203-0.13 2.043-0.067 4.087-0.134 6.7 0.136 1.146 0.182 1.722 0.027 2.297-0.129 7.024-0.07 14.047-0.14 21.621 0.064 0.826 0.162 1.103 0.048 1.379-0.065 10.689-0.071 21.379-0.142 32.752 0.169 2.206 0.199 3.727 0.017 5.248-0.165 3.696-0.07 7.391-0.14 11.68 0.126 1.169 0.183 1.744 0.029 2.319-0.125z" fill="#D12D4F"/>
    <path d="m-107 176.56c-1.49-1.116-3.46-1.93-4.39-3.399-5.32-8.321-10.53-16.723-15.42-25.298-0.85-1.485-0.01-3.932 0.75-5.688 1.69 0.346 2.67 0.53 3.66 0.53 83.663 0.013 167.33 0.016 250.99-0.021 1.433 0 2.865-0.483 4.298-0.741 0.283 1.412 1.291 3.273 0.738 4.167-6.251 10.094-12.739 20.04-19.184 30.012-0.158 0.243-0.565 0.325-1.516 0.194-1.479-0.385-2.297-0.569-3.116-0.57-70.851-0.014-141.7-0.019-212.55 0.019-1.42 1e-3 -2.84 0.519-4.26 0.795z" fill="#C22551"/>
    <path d="m147.97 52.662c-2.826 0.075-5.652 0.215-8.478 0.215-65.801 9e-3 -131.6 5e-3 -197.4-2e-3 -6.829-1e-3 -6.713-0.017-6.582-7.079 0.127-6.827-0.159-13.662 0.04-20.485 0.063-2.138 1.113-4.247 2.399-6.125 1.672 0.344 2.657 0.53 3.641 0.53 67.349 0.014 134.7 0.017 202.05-0.022 1.425-1e-3 2.85-0.5 4.275-0.767 0.925 1.197 2.564 2.339 2.659 3.598 0.696 9.152 1.118 18.327 1.497 27.5 0.033 0.798-0.863 1.634-1.888 2.31-1.11 0.015-1.659 0.171-2.208 0.327z" fill="#FF9E11"/>
    <path d="m149.92 59.872c0.7 0.555 2.046 1.163 2.006 1.657-0.882 10.693-1.918 21.373-3.765 32.15-70.997 0.085-141.15 0.075-211.31 0.066-0.384-1.182-1.101-2.365-1.1-3.546 8e-3 -9.666 0.151-19.332 0.977-29.261 70.128-0.247 139.53-0.225 208.94-0.249 1.418 0 2.836-0.533 4.254-0.817z" fill="#FFA30E"/>
    <path d="m141-21.295c2.353 9.737 4.765 19.461 6.965 29.232 0.224 0.995-0.834 2.278-1.779 3.367-0.815-0.223-1.055-0.113-1.198 0.271-0.466 0.051-0.931 0.102-2.052-0.189-1.64-0.447-2.623-0.644-3.606-0.644-64.364-0.015-128.73-0.02-193.09 0.02-1.415 1e-3 -2.83 0.538-4.244 0.824-0.772 0.05-1.544 0.099-2.769-0.072-0.743-0.45-0.996-0.392-1.211-0.049-0.813-1.767-2.266-3.513-2.327-5.306-0.254-7.47-0.089-14.955 0.292-23.138 0.358-1.977 0.346-3.251 0.333-4.526 0 0 0.073-0.256 0.651-0.142 2.739 0.187 4.9 0.326 7.062 0.327 65.658 0.017 131.32 0.02 196.98 0.025z" fill="#FE851E"/>
    <path d="m134.98-29.422c-2.389 0.084-4.779 0.167-7.754-0.05-1.142-0.158-1.699-0.014-2.257 0.13-0.763 0.059-1.527 0.118-2.965-0.193-5.127-0.178-9.581 0.014-14.035 0.207-3.379 0.054-6.758 0.108-10.889-0.209-5.872-0.18-10.99 0.01-16.108 0.201-3.048 0.06-6.095 0.12-9.775-0.148-1.497-0.168-2.363-8e-3 -3.229 0.153-1.403 0.059-2.806 0.118-4.922-0.197-5.144-0.498-9.579-0.791-14.006-0.697-4.36 0.092-8.713 0.576-13.069 0.888-3.379 0.059-6.758 0.118-10.838-0.175-2.522-0.175-4.343 2e-3 -6.164 0.179-1.405 0.055-2.81 0.109-4.93-0.207-6.499-0.179-12.284 0.013-18.068 0.204-1.731 0.058-3.461 0.116-5.915-0.197-5.845-0.181-10.966 0.01-16.086 0.201-2.058 0.057-4.116 0.113-6.856-0.181-2.502-0.176-4.322-2e-3 -6.143 0.173-3.711 0.057-7.423 0.114-11.88-0.194-4.196-0.209-7.646-0.052-11.096 0.105-0.875-1.282-2.711-2.784-2.476-3.812 2.103-9.189 4.354-18.363 7.131-27.365 0.499-1.621 3.604-3.47 5.511-3.476 58.426-0.175 116.85-0.174 175.28 0.046 2.018 7e-3 5.168 2.126 5.845 3.974 3.184 8.682 5.762 17.592 8.34 26.484 0.323 1.116-0.638 2.604-1.464 3.863-0.799-0.205-1.038-0.089-1.179 0.293z" fill="#FE8420"/>
    <path d="m-50.38-72.184c-0.045-1.028-0.501-2.286-0.073-3.049 5.416-9.665 10.959-19.259 17.266-28.977 33.807-0.1 66.818-0.09 99.829-0.08 1.107 5.467 2.186 10.944 3.332 16.406 0.832 3.965 1.753 7.911 2.819 12.572 0.172 1.484 0.158 2.262-0.204 3.044-1.127 0.379-1.907 0.753-2.686 1.127-1.687 0.078-3.373 0.157-5.752-0.197-1.656-0.6-2.62-0.911-3.585-0.912-33.19-0.025-66.38-0.034-99.571 0.027-1.368 2e-3 -2.735 0.702-4.102 1.078-1.72 0.028-3.44 0.057-5.723-0.287-0.891-0.499-1.221-0.625-1.55-0.752z" fill="#FE851F"/>
    <path d="m83.24 207.87c-5.124 6.804-11.444 9.473-20.421 9.356-41.767-0.544-83.545-0.217-125.32-0.287-2.38-4e-3 -4.758-0.768-7.386-1.915 0.35-3.923-0.134-8.454 1.786-10 3.384-2.725 8.124-4.546 12.498-5.075 6.298-0.761 12.272-1.325 17.1-6.059 0.83-0.814 2.692-0.673 4.091-0.782 1.59-0.125 3.239 0.199 4.789-0.08 7.948-1.431 15.836-3.241 23.818-4.42 4.81-0.711 9.798-1.027 14.631-0.621 11.462 0.963 22.859 2.675 34.319 3.671 8.199 0.713 16.457 0.733 24.686 1.131 0.955 0.046 1.961 0.397 2.82 0.845 4.039 2.106 8.034 4.295 10.986 5.884 0.674 3.511 1.138 5.931 1.602 8.352z" fill="#A51A54"/>
    <path d="m55.323-145.37c2.829 7.72 5.937 15.36 8.419 23.18 3.313 10.46 3.104 10.58-7.97 10.6-25.47 0.03-50.94 0.01-76.409-0.02-7.624-0.01-8.116-0.82-5.465-8.02 2.745-7.46 5.54-14.9 8.103-22.42 1.145-3.36 3.069-4.5 6.634-4.48 21.473 0.17 42.948 0.11 65.044 0.45 0.963 0.46 1.304 0.59 1.644 0.71z" fill="#FE8622"/>
    <path d="m-144.95 90.165c-0.45-8.756-0.73-17.075-1.33-25.371-0.29-4.018 1.28-5.232 5.15-5.209 21.49 0.131 42.986 0.137 64.48 0.034 3.474-0.017 4.728 1.167 4.666 4.63-0.151 8.495-0.132 16.997 0.021 25.492 0.064 3.551-1.12 5.139-4.871 5.124-20.994-0.085-41.986-0.064-62.986 0.036-3.16 0.015-4.52-1.529-5.13-4.736z" fill="#24BAD9"/>
    <path d="m83.538 207.74c-0.762-2.295-1.226-4.715-1.9-8.226-2.952-1.589-6.947-3.778-10.986-5.884-0.859-0.448-1.865-0.799-2.82-0.845-8.229-0.398-16.487-0.418-24.686-1.131-11.46-0.996-22.857-2.708-34.319-3.671-4.833-0.406-9.821-0.09-14.631 0.621-7.982 1.179-15.87 2.989-23.818 4.42-1.55 0.279-3.199-0.045-4.789 0.08-1.399 0.109-3.261-0.032-4.091 0.782-4.828 4.734-10.802 5.298-17.1 6.059-4.374 0.529-9.114 2.35-12.498 5.075-1.92 1.546-1.436 6.077-2.081 9.739-14.378-11.308-29.009-26.868-29.639-31.31h205.42c0.301 0.45 0.601 0.899 0.902 1.348-7.556 7.606-15.111 15.212-22.965 22.943z" fill="#AC2157"/>
    <path d="m-74.126 19.024c0.686 0.984 1.949 1.958 1.967 2.955 0.163 9.124 0.225 18.255-0.021 27.375-0.032 1.167-1.994 2.281-3.781 3.075-1.365-0.462-2.011-0.681-2.657-0.681-19.906-0.02-39.812-0.035-59.722 0.02-1.23 3e-3 -2.46 0.584-3.69 0.895-0.46 0.045-0.92 0.089-1.85-0.17-0.8-0.433-1.11-0.565-1.43-0.696-0.15-6.617-0.58-13.244-0.35-19.848 0.14-4.27 1.24-8.508 2.63-12.623 22.83 0.218 44.952 0.304 67.076 0.351 0.609 1e-3 1.218-0.426 1.828-0.653z" fill="#25BAD9"/>
    <path d="m40.926 239.71c-10.53 5.186-20.674 10.338-30.947 15.217-5.456 2.591-11.139 1.542-16.481-0.475-16.259-6.139-30.795-15.369-44.713-25.619-0.896-0.66-1.198-2.125-1.776-3.216 1.092-0.562 2.151-1.52 3.28-1.61 2.979-0.238 5.987-0.109 8.983-0.109 31.13-2e-3 62.26-0.012 93.39 0.029 2.011 3e-3 4.022 0.417 6.033 0.64 0.26 0.657 0.52 1.314 0.781 1.971-6.073 4.342-12.146 8.683-18.55 13.172z" fill="#9A1E58"/>
    <path d="m-141.48 10.84c-0.44-1.394-1.51-2.922-1.24-4.162 1.81-8.415 3.91-16.767 5.9-25.143 0.76-3.181 2.52-4.667 6.01-4.644 17.81 0.119 35.627 0.071 53.443 0.024 2.842-7e-3 5.138 0.662 5.194 3.936 0.158 9.321 0.189 18.646 0.153 27.969-3e-3 0.833-0.85 1.663-2.027 2.337-22.957-0.211-45.193-0.264-67.433-0.317z" fill="#28BAD9"/>
    <path d="m34.981-153.38c-8.709 0.05-17.418 0.1-26.677-0.08-0.811-0.13-1.072-0.03-1.333 0.08-1.085 0.05-2.17 0.1-3.87-0.17-1.783-0.16-2.951 0-4.119 0.16-11 0.64-11.003 0.64-10.988-10.24 9e-3 -6.66 0.059-13.32 0.03-19.98-0.015-3.47 1.372-5.04 5.091-4.99 13.313 0.14 26.631-0.08 39.941 0.19 1.896 0.03 4.662 1.54 5.478 3.15 4.489 8.85 8.56 17.91 12.636 26.97 1.689 3.75-0.073 5.25-3.86 5.1-2.161-0.08-4.327-0.03-7.18-0.37-2.176-0.16-3.663 0.01-5.149 0.18z" fill="#FE8420"/>
    <path d="m-94.172-64.231c8.842 0.013 8.836 0.015 11.062 8.179 1.916 7.022 3.81 14.049 5.787 21.053 1.117 3.957 0.21 5.894-4.386 5.845-14.809-0.159-29.621-0.014-44.431-0.063-5.04-0.016-5.82-0.983-4.01-5.549 3.37-8.461 7.07-16.786 10.54-25.206 1.33-3.213 3.53-4.431 6.99-4.317 5.98 0.196 11.98 0.056 18.448 0.058z" fill="#27BADA"/>
    <path d="m-11.981-230.26c0.018-4.33-0.118-8.17 0.137-11.99 0.088-1.32 0.917-3.42 1.813-3.66 1.257-0.34 3.317 0.29 4.303 1.25 13.515 13.19 25.299 27.79 35.049 43.98 2.476 4.12 1.702 5.38-2.992 5.41-11.163 0.06-22.329-0.09-33.49 0.09-3.85 0.07-4.894-1.6-4.853-5.09 0.113-9.83 0.035-19.66 0.033-29.99z" fill="#FE8420"/>
    <path d="m72.937-72.272c0.014-0.778 0.028-1.556 0.058-2.722 8.584-5.1 12.473-13.493 15.894-21.841 2.215-5.405 2.696-11.515 4.04-17.295 0.241-1.03 0.806-2.72 1.392-2.79 1.094-0.14 2.446 0.48 3.44 1.15 0.921 0.62 1.645 1.65 2.234 2.63 7.155 11.93 14.381 23.82 21.34 35.865 2.863 4.957 1.843 6.578-3.781 6.611-11.964 0.068-23.93-0.048-36.503-0.583-3.11-0.671-5.612-0.848-8.114-1.025z" fill="#FFA213"/>
    <path d="m-107.53-80.794c5.64-9.082 11.075-17.859 16.511-26.636 0.529 0.13 1.059 0.26 1.589 0.39 0.469 1.27 1.291 2.52 1.352 3.81 0.445 9.281 0.629 18.577 1.128 27.855 0.194 3.607-1.547 4.786-4.681 4.8-4.98 0.023-9.969 0.149-14.939-0.088-5.43-0.26-6.07-1.714-3.23-6.432 0.68-1.137 1.38-2.263 2.27-3.699z" fill="#2BBCDB"/>
    <path d="m140.85-21.665c-65.508 0.365-131.17 0.362-196.82 0.345-2.162-1e-3 -4.323-0.14-6.955-0.406 1.232-0.603 2.933-1.374 4.635-1.375 64.592-0.061 129.18-0.06 193.78-4e-3 1.74 1e-3 3.479 0.697 5.369 1.44z" fill="#FD923D"/>
    <path d="m132.43 141.85c-0.976 0.349-2.408 0.832-3.841 0.832-83.663 0.037-167.33 0.034-250.99 0.021-0.99 0-1.97-0.184-3.28-0.544 28.514-0.318 57.341-0.417 86.168-0.426 57.162-0.017 114.32 0.014 171.94 0.117z" fill="#B71237"/>
    <path d="m-106.54 176.63c0.96-0.345 2.38-0.863 3.8-0.864 70.847-0.038 141.7-0.033 212.55-0.019 0.819 1e-3 1.637 0.185 2.77 0.546-30.68 0.323-61.675 0.417-92.669 0.433-41.997 0.022-83.995-0.016-126.45-0.096z" fill="#B2143A"/>
    <path d="m149.45 59.794c-0.957 0.362-2.375 0.895-3.793 0.895-69.404 0.024-138.81 2e-3 -208.72-0.038 1.058-0.337 2.625-0.925 4.192-0.926 69.287-0.035 138.57-0.019 208.32 0.069z" fill="#FF9506"/>
    <path d="m-62.903 94.105c69.906-0.351 140.06-0.341 210.71-0.309-1.059 0.351-2.613 0.968-4.167 0.969-67.611 0.037-135.22 0.021-202.83-4e-3 -1.154-1e-3 -2.309-0.193-3.712-0.656z" fill="#FF760C"/>
    <path d="m147.45 18.842c-0.966 0.352-2.391 0.851-3.816 0.852-67.349 0.039-134.7 0.036-202.05 0.022-0.984 0-1.969-0.186-3.274-0.543 23.121-0.325 46.561-0.441 70.002-0.451 46.225-0.02 92.451 0.019 139.14 0.12z" fill="#FE890B"/>
    <path d="m-57.546 11.647c0.952-0.347 2.367-0.884 3.782-0.885 64.364-0.04 128.73-0.035 193.09-0.02 0.983 0 1.966 0.197 3.26 0.572-27.186 0.317-54.682 0.393-82.178 0.407-39.164 0.019-78.329-7e-3 -117.96-0.074z" fill="#FD740A"/>
    <path d="m66.474-104.62c-32.843 0.32-65.854 0.31-99.355 0.28 1.182-0.5 2.853-1.38 4.527-1.38 29.943-0.09 59.887-0.08 89.83-0.04 1.61 0 3.22 0.53 4.998 1.14z" fill="#FE7712"/>
    <path d="m-42.641-71.055c0.901-0.466 2.268-1.166 3.636-1.168 33.191-0.061 66.381-0.052 99.571-0.027 0.965 1e-3 1.929 0.312 3.175 0.804-27.971 0.401-56.222 0.486-84.474 0.548-7.147 0.016-14.294-0.042-21.908-0.157z" fill="#FE7712"/>
    <path d="m-74.578 18.915c-0.158 0.336-0.767 0.763-1.376 0.762-22.124-0.047-44.246-0.133-66.696-0.455 22.32-0.299 44.969-0.358 68.072-0.307z" fill="#25ADCE"/>
    <path d="m-141.15 11.151c21.91-0.258 44.146-0.205 66.71 0.089-21.906 0.234-44.14 0.228-66.71-0.089z" fill="#1FA5C6"/>
    <path d="m-141.57 52.738c0.77-0.386 2-0.967 3.23-0.97 19.91-0.055 39.816-0.04 59.722-0.02 0.646 0 1.292 0.219 2.243 0.615-21.374 0.336-43.055 0.393-65.195 0.375z" fill="#25ADCE"/>
    <path d="m-114.5 100.61c-2.53 0.426-5.52 0.992-8.52 1.074-5.73 0.155-11.46 0.033-17.66 0.018 1.17-0.401 2.82-1.106 4.47-1.134 7.08-0.121 14.16-0.043 21.71 0.042z" fill="#CD173C"/>
    <path d="m36.433-29.265c3.893-0.384 8.246-0.868 12.606-0.96 4.427-0.094 8.862 0.199 13.592 0.611-8.379 0.332-17.058 0.376-26.198 0.349z" fill="#FD7513"/>
    <path d="m-54.504 100.62c-6.685 0.282-13.833 0.485-21.269 0.383 6.743-0.358 13.774-0.41 21.269-0.383z" fill="#CD173C"/>
    <path d="m-3.568-29.264c5.322-0.263 11.107-0.455 17.192-0.363-5.377 0.334-11.054 0.384-17.192 0.363z" fill="#FD7513"/>
    <path d="m-25.57-29.261c4.659-0.262 9.78-0.453 15.199-0.358-4.714 0.333-9.726 0.381-15.199 0.358z" fill="#FD7513"/>
    <path d="m81.431-29.264c4.658-0.263 9.776-0.453 15.194-0.36-4.711 0.334-9.722 0.383-15.194 0.36z" fill="#FD7513"/>
    <path d="m108.43-29.257c3.996-0.264 8.45-0.456 13.202-0.365-4.049 0.335-8.396 0.386-13.202 0.365z" fill="#FD7513"/>
    <path d="m109.5 100.63c-3.36 0.277-7.175 0.476-11.275 0.377 3.417-0.351 7.118-0.403 11.275-0.377z" fill="#CD173C"/>
    <path d="m72.589-72.268c2.85 0.173 5.352 0.35 8.09 0.854-3.132 0.371-6.5 0.414-10.322 0.365 0.325-0.466 1.105-0.84 2.232-1.219z" fill="#FE7712"/>
    <path d="m-61.559-29.339c3.003-0.247 6.453-0.404 10.194-0.283-3.056 0.31-6.401 0.341-10.194 0.283z" fill="#FD7513"/>
    <path d="m-29.489 100.62c-2.71 0.277-5.869 0.475-9.301 0.374 2.768-0.35 5.809-0.402 9.301-0.374z" fill="#CD173C"/>
    <path d="m-63.87-21.282c0.193 1.052 0.205 2.326-0.094 3.842-0.237-1.045-0.162-2.332 0.094-3.842z" fill="#FD923D"/>
    <path d="m-83.474 100.62c-1.74 0.27-3.914 0.462-6.339 0.363 1.801-0.34 3.853-0.39 6.339-0.363z" fill="#CD173C"/>
    <path d="m19.39-29.261c1.399-0.249 3.22-0.426 5.289-0.338-1.457 0.313-3.163 0.361-5.289 0.338z" fill="#FD7513"/>
    <path d="m-38.608-29.268c1.399-0.247 3.219-0.421 5.288-0.331-1.457 0.311-3.162 0.357-5.288 0.331z" fill="#FD7513"/>
    <path d="m35.388-153.32c1.079-0.23 2.566-0.4 4.289-0.32-1.137 0.3-2.509 0.34-4.289 0.32z" fill="#FE7712"/>
    <path d="m58.543 100.63c-1.108 0.262-2.629 0.444-4.377 0.351 1.171-0.328 2.568-0.38 4.377-0.351z" fill="#CD173C"/>
    <path d="m-0.628-153.32c0.778-0.23 1.946-0.39 3.327-0.31-0.836 0.29-1.887 0.33-3.327 0.31z" fill="#FE7712"/>
    <path d="m-48.438 100.62c-0.806 0.259-2.009 0.439-3.418 0.349 0.87-0.323 1.945-0.375 3.418-0.349z" fill="#CD173C"/>
    <path d="m-15.437 100.62c-0.804 0.259-2.006 0.441-3.414 0.355 0.867-0.323 1.942-0.378 3.414-0.355z" fill="#CD173C"/>
    <path d="m68.334-29.26c0.499-0.232 1.365-0.392 2.413-0.311-0.56 0.288-1.303 0.335-2.413 0.311z" fill="#FD7513"/>
    <path d="m86.584 100.63c-0.511 0.249-1.395 0.42-2.46 0.337 0.575-0.309 1.331-0.362 2.46-0.337z" fill="#CD173C"/>
    <path d="m124.62 100.64c-0.243 0.231-0.819 0.384-1.537 0.305 0.307-0.282 0.756-0.333 1.537-0.305z" fill="#CD173C"/>
    <path d="m-11.375 100.62c-0.245 0.234-0.824 0.389-1.545 0.309 0.309-0.286 0.76-0.337 1.545-0.309z" fill="#CD173C"/>
    <path d="m72.623 100.63c-0.243 0.231-0.818 0.385-1.537 0.307 0.306-0.282 0.755-0.333 1.537-0.307z" fill="#CD173C"/>
    <path d="m-2.376 100.63c-0.243 0.231-0.819 0.386-1.538 0.31 0.306-0.283 0.756-0.334 1.538-0.31z" fill="#CD173C"/>
    <path d="m125.29-29.273c0.233-0.213 0.79-0.357 1.491-0.285-0.293 0.261-0.73 0.308-1.491 0.285z" fill="#FD7513"/>
    <path d="m148.29 52.731c0.225-0.225 0.774-0.381 1.474-0.331-0.283 0.271-0.717 0.336-1.474 0.331z" fill="#FF9703"/>
    <path d="m20.703 100.64c-0.023 0.178-0.3 0.292-0.668 0.235 0.077-0.212 0.246-0.256 0.668-0.235z" fill="#CD173C"/>
    <path d="m145.22 11.619c-0.088-0.428 0.152-0.538 0.58-0.244 0.094 0.132-0.349 0.288-0.58 0.244z" fill="#FD740A"/>
    <path d="m120.7 100.64c-0.022 0.178-0.298 0.292-0.666 0.236 0.077-0.212 0.245-0.256 0.666-0.236z" fill="#CD173C"/>
    <path d="m142.7 100.66c-0.024 0.178-0.298 0.284-0.662 0.225 0.077-0.209 0.244-0.252 0.662-0.225z" fill="#CD173C"/>
    <path d="m55.179-145.62c-0.196 0.13-0.537 0-1.041-0.35 0.191-0.11 0.544 0 1.041 0.35z" fill="#FE7712"/>
    <path d="m135.21-29.381c-0.094-0.423 0.145-0.539 0.581-0.262 0.099 0.128-0.345 0.302-0.581 0.262z" fill="#FD7513"/>
    <path d="m7.21-153.33c0.022-0.16 0.283-0.26 0.629-0.21 0.087 0.16-0.391 0.26-0.629 0.21z" fill="#FE7712"/>
    <path d="m-145.18 52.04c0.19-0.112 0.5 0.02 0.96 0.363-0.18 0.101-0.51-9e-3 -0.96-0.363z" fill="#25ADCE"/>
    <path d="m-50.242-71.939c0.191-0.118 0.521 8e-3 1.007 0.351-0.185 0.109-0.527 1e-3 -1.007-0.351z" fill="#FE7712"/>
    <path d="m-61.771 11.562c-2e-3 -0.44 0.251-0.498 0.614-0.126 0.071 0.144-0.397 0.223-0.614 0.126z" fill="#FD740A"/>
  </g>
</svg>
